SplineFontDB: 3.0
FontName: Nika-Regular
FullName: Nika Regular
FamilyName: Nika
Weight: Regular
Copyright: Copyright (c) 2016 Copyright Holder Persian Font Store (info@font-store.ir), with Reserved Font Name "Nika"
UComments: "2015-5-13: Created with FontForge (http://fontforge.org)"
Version: Version:0.1.3;RFB:1.2.5;Building:2016-04-11 13:01:07.584214
FONDName: RITA
ItalicAngle: 0
UnderlinePosition: 500
UnderlineWidth: 59
Ascent: 800
Descent: 500
InvalidEm: 0
sfntRevision: 0x00010000
LayerCount: 2
Layer: 0 0 "Back" 1
Layer: 1 0 "Fore" 0
PreferredKerning: 4
XUID: [1021 828 -1901974348 32649]
StyleMap: 0x0040
FSType: 0
OS2Version: 0
OS2_WeightWidthSlopeOnly: 0
OS2_UseTypoMetrics: 0
CreationTime: 1431477301
ModificationTime: 1460363467
PfmFamily: 33
TTFWeight: 400
TTFWidth: 5
LineGap: 100
VLineGap: 0
Panose: 2 0 5 3 0 0 0 0 0 0
OS2TypoAscent: 800
OS2TypoAOffset: 0
OS2TypoDescent: -500
OS2TypoDOffset: 0
OS2TypoLinegap: 100
OS2WinAscent: 1100
OS2WinAOffset: 0
OS2WinDescent: 700
OS2WinDOffset: 0
HheadAscent: 1100
HheadAOffset: 0
HheadDescent: -700
HheadDOffset: 0
OS2SubXSize: 780
OS2SubYSize: 839
OS2SubXOff: -107
OS2SubYOff: 168
OS2SupXSize: 780
OS2SupYSize: 839
OS2SupXOff: 369
OS2SupYOff: 575
OS2StrikeYSize: 59
OS2StrikeYPos: 310
OS2Vendor: 'RITA'
OS2CodePages: 00000040.00000000
OS2UnicodeRanges: 80002003.80002000.00000008.00000000
MacStyle: 0
Lookup: 4 1 1 "'ccmp' Glyph Composition/Decomposition in Arabic lookup 5" { "'ccmp' Glyph Composition/Decomposition in Arabic lookup 5-1"  } ['ccmp' ('DFLT' <'dflt' > 'arab' <'dflt' > ) ]
Lookup: 1 9 0 "'isol' Isolated Forms in Latin lookup 1" { "'isol' Isolated Forms in Latin lookup 1-1"  } ['isol' ('DFLT' <'dflt' > 'arab' <'dflt' > ) ]
Lookup: 1 9 0 "'fina' Terminal Forms in Arabic lookup 3" { "'fina' Terminal Forms in Arabic lookup 3-1"  } ['fina' ('DFLT' <'dflt' > 'arab' <'dflt' > ) ]

StartChar: _.alef.isol
Encoding: 65536 -1 0
GlifName: _.alef.isol
Width: 216
VWidth: 1304
GlyphClass: 2
Flags: HMW
LayerCount: 2
Fore
SplineSet
64 702 m 0
 64 735 70 744 101 770 c 2
 124 790 l 2
 131 796 137 800 142 800 c 0
 149 800 152 793 152 779 c 2
 152 20 l 2
 152 6 118 -23 100 -23 c 0
 93 -23 88 -20 88 -10 c 2
 65 667 l 2
 64 681 64 693 64 702 c 0
EndSplineSet
Colour: ffda6b
EndChar

StartChar: _.alef.fina
Encoding: 65537 -1 1
GlifName: _.alef.fina
Width: 287
VWidth: 1304
GlyphClass: 2
Flags: HMW
LayerCount: 2
Fore
SplineSet
64 702 m 0
 64 735 70 744 101 770 c 2
 124 790 l 2
 131 796 137 800 142 800 c 0
 149 800 152 793 152 779 c 2
 152 159 l 1
 153 129 186 100 276 100 c 2
 287 100 l 1
 287 -0 l 1
 272 -0 l 2
 145 0 82 63 82 141 c 1
 65 667 l 2
 64 681 64 693 64 702 c 0
EndSplineSet
Colour: ffda6b
EndChar

StartChar: _.beh.isol
Encoding: 65540 -1 4
GlifName: _.beh.isol
Width: 930
VWidth: 1304
GlyphClass: 2
UnlinkRmOvrlpSave: 1
Flags: HMW
LayerCount: 2
Fore
SplineSet
64 217 m 0
 64 267 76 327 102 400 c 0
 104 406 113 409 118 407 c 2
 153 393 l 2
 158 391 163 384 159 373 c 0
 142 328 135 289 135 256 c 0
 135 138 238 100 369 100 c 0
 371 100 372 100 374 100 c 0
 540 100 683 134 791 172 c 1
 791 175 791 178 791 181 c 0
 791 230 765 319 752 364 c 0
 747 379 754 386 759 391 c 2
 807 432 l 2
 819 442 827 432 829 425 c 0
 851 354 866 287 866 229 c 0
 866 219 866 209 865 200 c 0
 860 152 842 99 753 65 c 1
 647 31 546 -1 358 -1 c 0
 199 -1 64 47 64 217 c 0
EndSplineSet
Colour: ffda6b
EndChar

StartChar: _.beh.fina
Encoding: 65541 -1 5
GlifName: _.beh.fina
Width: 1051
VWidth: 1304
GlyphClass: 2
UnlinkRmOvrlpSave: 1
Flags: HMW
LayerCount: 2
Fore
SplineSet
64 217 m 0
 64 267 76 327 102 400 c 0
 104 406 113 409 118 407 c 2
 153 393 l 2
 158 391 163 384 159 373 c 0
 142 328 135 289 135 256 c 0
 135 138 238 100 369 100 c 0
 371 100 372 100 374 100 c 0
 549 100 691 139 806 177 c 1
 794 216 786 258 777 304 c 0
 776 313 781 324 791 326 c 2
 838 340 l 2
 845 342 855 334 856 327 c 0
 887 187 905 100 1051 100 c 1
 1051 -0 l 1
 935 0 874 39 837 101 c 1
 819 90 787 80 753 65 c 0
 647 31 546 -1 358 -1 c 0
 199 -1 64 47 64 217 c 0
EndSplineSet
Colour: ffda6b
EndChar

StartChar: _.beh.medi
Encoding: 65542 -1 6
GlifName: _.beh.medi
Width: 439
VWidth: 1304
GlyphClass: 2
UnlinkRmOvrlpSave: 1
Flags: HMW
LayerCount: 2
Fore
SplineSet
-50 49 m 0
 -50 76 -27 100 -1 100 c 0
 48 100 86 102 120 112 c 0
 162 126 180 152 180 184 c 2
 180 290 l 2
 180 304 180 315 200 320 c 2
 234 329 l 2
 249 333 259 327 259 310 c 2
 259 157 l 2
 259 136 287 119 318 112 c 0
 357 101 398 100 439 100 c 1
 439 -0 l 1
 415 -0 l 2
 315 0 254 26 220 69 c 1
 184 26 123 0 23 -0 c 2
 -1 -0 l 2
 -25 0 -50 24 -50 49 c 0
EndSplineSet
Colour: ffda6b
EndChar

StartChar: _.beh.init
Encoding: 65543 -1 7
GlifName: _.beh.init
Width: 323
VWidth: 1197
GlyphClass: 1
UnlinkRmOvrlpSave: 1
Flags: HMW
LayerCount: 2
Fore
SplineSet
-50 49 m 0
 -50 76 -27 100 -1 100 c 0
 78 100 127 106 180 139 c 1
 180 143 181 147 181 152 c 0
 181 201 158 275 141 327 c 0
 136 342 143 349 148 354 c 2
 197 396 l 2
 209 407 218 396 220 390 c 0
 245 316 259 252 259 197 c 0
 259 148 248 106 222 72 c 0
 188 26 125 0 23 -0 c 2
 -1 -0 l 2
 -25 0 -50 24 -50 49 c 0
EndSplineSet
Colour: ffda6b
EndChar

StartChar: _.heh.isol
Encoding: 65544 -1 8
GlifName: _.heh.isol
Width: 744
VWidth: 1304
GlyphClass: 1
UnlinkRmOvrlpSave: 1
Flags: HMW
LayerCount: 2
Fore
SplineSet
66 295 m 0
 104 401 157 437 220 437 c 0
 342 437 501 306 662 306 c 0
 688 306 679 286 677 279 c 2
 659 223 l 2
 657 214 647 210 636 210 c 2
 615 210 l 1
 343 194 136 19 136 -120 c 0
 136 -215 231 -300 435 -300 c 0
 491 -300 554 -294 626 -280 c 1
 606 -381 l 1
 537 -394 476 -399 423 -399 c 0
 146 -399 77 -244 77 -131 c 0
 77 22 202 195 411 269 c 1
 333 303 262 338 207 338 c 0
 168 338 137 320 118 272 c 0
 113 262 103 256 91 261 c 2
 75 268 l 2
 66 272 61 279 66 295 c 0
EndSplineSet
Colour: ffda6b
EndChar

StartChar: _.heh.fina
Encoding: 65545 -1 9
GlifName: _.heh.fina
Width: 757
VWidth: 1304
GlyphClass: 1
UnlinkRmOvrlpSave: 1
Flags: HMW
LayerCount: 2
Fore
SplineSet
66 295 m 0
 104 401 157 437 220 437 c 0
 342 437 501 306 662 306 c 0
 688 306 679 286 677 279 c 2
 659 223 l 2
 657 214 647 210 636 210 c 2
 615 210 l 1
 595 209 577 208 557 204 c 1
 564 171 574 154 588 139 c 0
 616 106 685 100 726 100 c 2
 757 100 l 1
 757 -0 l 1
 726 -0 l 2
 540 0 511 104 502 194 c 1
 288 144 136 -1 136 -120 c 0
 136 -215 231 -300 435 -300 c 0
 491 -300 554 -294 626 -280 c 1
 606 -381 l 1
 537 -394 476 -399 423 -399 c 0
 146 -399 77 -244 77 -131 c 0
 77 22 202 195 411 269 c 1
 333 303 262 338 207 338 c 0
 168 338 137 320 118 272 c 0
 113 262 103 256 91 261 c 2
 75 268 l 2
 66 272 61 279 66 295 c 0
EndSplineSet
Colour: ffda6b
EndChar

StartChar: _.heh.medi
Encoding: 65546 -1 10
GlifName: _.heh.medi
Width: 728
VWidth: 1304
GlyphClass: 1
UnlinkRmOvrlpSave: 1
Flags: HMW
LayerCount: 2
Fore
SplineSet
-50 50 m 0
 -50 75 -26 100 -1 100 c 2
 77 100 l 2
 297 100 367 187 457 247 c 1
 358 285 266 338 199 338 c 0
 160 338 129 320 110 272 c 0
 105 262 95 256 83 261 c 2
 67 268 l 2
 58 272 53 279 58 295 c 0
 96 401 149 437 212 437 c 0
 334 437 493 306 654 306 c 0
 680 306 671 286 669 279 c 2
 652 223 l 2
 650 214 639 210 628 210 c 0
 603 210 581 208 561 203 c 1
 567 171 576 154 590 139 c 0
 618 106 687 100 728 100 c 1
 728 -0 l 1
 548 0 515 97 505 184 c 1
 383 129 336 0 100 -0 c 2
 -1 -0 l 2
 -26 0 -50 24 -50 50 c 0
EndSplineSet
Colour: ffda6b
EndChar

StartChar: _.heh.init
Encoding: 65547 -1 11
GlifName: _.heh.init
Width: 736
VWidth: 1304
GlyphClass: 1
UnlinkRmOvrlpSave: 1
Flags: HMW
LayerCount: 2
Fore
SplineSet
-50 50 m 0
 -50 75 -26 100 -1 100 c 2
 77 100 l 2
 297 100 367 187 457 247 c 1
 358 285 266 338 199 338 c 0
 160 338 129 320 110 272 c 0
 105 262 95 256 83 261 c 2
 67 268 l 2
 58 272 53 279 58 295 c 0
 96 401 149 437 212 437 c 0
 334 437 493 306 654 306 c 0
 680 306 671 286 669 279 c 2
 652 223 l 2
 650 214 639 210 628 210 c 0
 394 210 400 0 100 -0 c 2
 -1 -0 l 2
 -26 0 -50 24 -50 50 c 0
EndSplineSet
Colour: ffda6b
EndChar

StartChar: _.sin.isol
Encoding: 65548 -1 12
GlifName: _.sin.isol
Width: 1323
VWidth: 1304
GlyphClass: 1
UnlinkRmOvrlpSave: 1
Flags: HMW
LayerCount: 2
Fore
SplineSet
684 0 m 0
 684 -188 498 -299 332 -299 c 0
 192 -299 64 -219 64 -34 c 0
 64 33 80 113 119 208 c 0
 123 218 133 224 142 220 c 2
 171 208 l 2
 178 206 184 195 179 184 c 0
 148 105 134 40 134 -12 c 0
 134 -150 228 -199 333 -199 c 0
 449 -199 578 -139 607 -73 c 0
 609 -67 609 -60 609 -52 c 0
 609 11 569 143 548 208 c 0
 543 224 546 232 556 241 c 2
 605 282 l 2
 610 287 618 288 622 278 c 0
 631 255 639 229 646 202 c 0
 668 136 736 101 795 101 c 0
 841 101 883 122 894 167 c 2
 922 287 l 2
 924 294 935 301 942 299 c 2
 986 287 l 2
 995 285 999 273 998 264 c 2
 970 134 l 1
 1002 111 1049 91 1081 90 c 0
 1096 90 1149 96 1179 113 c 1
 1179 117 1180 120 1180 124 c 0
 1180 163 1168 206 1140 296 c 0
 1136 308 1140 314 1146 320 c 1
 1199 362 l 2
 1206 368 1216 372 1220 358 c 0
 1238 306 1259 238 1259 165 c 0
 1259 163 1259 161 1259 159 c 0
 1259 52 1183 -10 1081 -10 c 0
 1032 -10 961 19 927 56 c 1
 892 20 842 0 790 -0 c 0
 753 0 715 10 682 33 c 1
 683 21 684 10 684 0 c 0
EndSplineSet
Colour: ffda6b
EndChar

StartChar: _.sin.fina
Encoding: 65549 -1 13
GlifName: _.sin.fina
Width: 1419
VWidth: 1304
GlyphClass: 1
UnlinkRmOvrlpSave: 1
Flags: HMW
LayerCount: 2
Fore
SplineSet
684 0 m 0
 684 -188 498 -299 332 -299 c 0
 192 -299 64 -219 64 -34 c 0
 64 33 80 113 119 208 c 0
 123 218 133 224 142 220 c 2
 171 208 l 2
 178 206 184 195 179 184 c 0
 148 105 134 40 134 -12 c 0
 134 -150 228 -199 333 -199 c 0
 449 -199 578 -139 607 -73 c 0
 609 -67 609 -60 609 -52 c 0
 609 11 569 143 548 208 c 0
 543 224 546 232 556 241 c 2
 605 282 l 2
 610 287 618 288 622 278 c 0
 631 255 639 229 646 202 c 0
 668 136 736 101 795 101 c 0
 841 101 883 122 894 167 c 2
 922 287 l 2
 924 294 935 301 942 299 c 2
 986 287 l 2
 995 285 999 273 998 264 c 2
 969 133 l 1
 1001 111 1048 91 1080 90 c 0
 1123 90 1160 104 1194 122 c 1
 1171 172 1158 236 1146 304 c 0
 1145 313 1150 324 1160 326 c 2
 1206 340 l 2
 1213 342 1224 334 1225 327 c 0
 1256 187 1273 100 1419 100 c 1
 1419 -0 l 1
 1328 0 1272 25 1234 64 c 1
 1203 16 1146 -10 1080 -10 c 0
 1032 -10 961 19 927 56 c 1
 891 20 840 0 789 -0 c 0
 752 0 715 10 682 33 c 1
 683 21 684 10 684 0 c 0
EndSplineSet
Colour: ffda6b
EndChar

StartChar: _.sin.medi
Encoding: 65550 -1 14
GlifName: _.sin.medi
Width: 1004
VWidth: 1304
GlyphClass: 1
UnlinkRmOvrlpSave: 1
Flags: HMW
LayerCount: 2
Fore
SplineSet
-50 49 m 0
 -50 75 -27 100 -1 100 c 0
 136 100 172 143 193 223 c 1
 207 287 l 2
 209 294 220 301 227 299 c 2
 270 285 l 2
 279 283 284 273 282 263 c 2
 256 142 l 1
 290 113 331 100 369 100 c 0
 422 100 468 125 478 167 c 2
 506 287 l 2
 508 294 519 301 526 299 c 2
 570 287 l 2
 579 285 584 273 583 264 c 2
 554 133 l 1
 586 111 632 91 664 90 c 0
 707 90 745 104 779 122 c 1
 756 172 743 236 731 304 c 0
 730 313 734 324 744 326 c 2
 791 340 l 2
 798 342 808 334 809 327 c 0
 840 187 858 100 1004 100 c 1
 1004 -0 l 1
 913 0 856 25 818 64 c 1
 787 16 730 -10 664 -10 c 0
 616 -10 545 19 511 56 c 1
 472 17 417 0 362 0 c 0
 300 0 238 23 207 65 c 1
 163 22 95 0 -1 -0 c 0
 -25 1 -50 24 -50 49 c 0
EndSplineSet
Colour: ffda6b
EndChar

StartChar: _.sin.init
Encoding: 65551 -1 15
GlifName: _.sin.init
Width: 907
VWidth: 1304
GlyphClass: 1
UnlinkRmOvrlpSave: 1
Flags: HMW
LayerCount: 2
Fore
SplineSet
-50 49 m 0
 -50 75 -27 100 -1 100 c 0
 136 100 172 143 193 223 c 1
 207 287 l 2
 209 294 220 301 227 299 c 2
 270 285 l 2
 279 283 284 273 282 263 c 2
 256 142 l 1
 290 113 331 100 369 100 c 0
 422 100 468 125 478 167 c 2
 506 287 l 2
 508 294 519 301 526 299 c 2
 570 287 l 2
 579 285 584 273 583 264 c 2
 554 133 l 1
 586 111 632 91 664 90 c 0
 679 90 733 96 763 113 c 1
 763 117 763 121 763 125 c 0
 763 163 752 207 723 296 c 0
 719 308 723 314 729 320 c 1
 782 362 l 2
 789 368 799 372 803 358 c 0
 822 307 843 238 843 165 c 0
 843 163 843 161 843 159 c 0
 843 52 767 -10 664 -10 c 0
 616 -10 545 19 511 56 c 1
 472 17 417 0 362 0 c 0
 300 0 238 23 207 65 c 1
 163 22 95 0 -1 -0 c 0
 -25 1 -50 24 -50 49 c 0
EndSplineSet
Colour: ffda6b
EndChar

StartChar: _.sad.isol
Encoding: 65552 -1 16
GlifName: _.sad.isol
Width: 1394
VWidth: 1304
GlyphClass: 1
UnlinkRmOvrlpSave: 1
Flags: HMW
LayerCount: 2
Fore
SplineSet
64 -35 m 0
 64 32 81 113 120 208 c 0
 124 218 132 224 142 220 c 2
 171 208 l 2
 177 206 183 195 179 184 c 0
 148 105 134 40 134 -12 c 0
 134 -150 228 -199 333 -199 c 0
 449 -199 578 -139 607 -73 c 0
 608 -68 609 -61 609 -53 c 0
 609 9 569 142 548 208 c 0
 542 224 547 232 557 241 c 2
 605 282 l 2
 615 290 619 283 624 273 c 0
 646 213 678 153 740 122 c 1
 872 262 991 441 1128 441 c 0
 1277 441 1330 307 1330 209 c 0
 1330 61 1194 0 1028 -0 c 2
 827 -0 l 1
 767 1 720 13 681 38 c 1
 683 22 684 7 684 -6 c 0
 684 -11 683 -16 683 -20 c 0
 670 -193 493 -299 332 -299 c 0
 192 -299 64 -220 64 -35 c 0
799 103 m 1
 810 101 823 100 837 100 c 2
 1011 100 l 2
 1135 100 1197 127 1251 160 c 1
 1250 240 1197 330 1108 330 c 0
 984 330 862 179 799 103 c 1
EndSplineSet
Colour: ffda6b
EndChar

StartChar: _.sad.fina
Encoding: 65553 -1 17
GlifName: _.sad.fina
Width: 1487
VWidth: 1304
GlyphClass: 1
UnlinkRmOvrlpSave: 1
Flags: HMW
LayerCount: 2
Fore
SplineSet
64 -35 m 0
 64 32 81 113 120 208 c 0
 124 218 132 224 142 220 c 2
 171 208 l 2
 177 206 183 195 179 184 c 0
 148 105 134 40 134 -12 c 0
 134 -150 228 -199 333 -199 c 0
 449 -199 578 -139 607 -73 c 0
 608 -68 609 -61 609 -53 c 0
 609 9 569 142 548 208 c 0
 542 224 547 232 557 241 c 2
 605 282 l 2
 615 290 619 283 624 273 c 0
 646 213 678 153 740 122 c 1
 872 262 991 441 1128 441 c 0
 1277 441 1330 307 1330 209 c 0
 1330 182 1325 158 1316 136 c 1
 1327 125 1347 117 1367 112 c 0
 1401 102 1440 100 1487 100 c 1
 1487 -0 l 1
 1464 -0 l 2
 1364 0 1302 26 1268 69 c 1
 1213 21 1125 0 1028 -0 c 2
 827 -0 l 1
 767 1 720 13 681 38 c 1
 683 22 684 7 684 -6 c 0
 684 -11 683 -16 683 -20 c 0
 670 -193 493 -299 332 -299 c 0
 192 -299 64 -220 64 -35 c 0
799 103 m 1
 810 101 823 100 837 100 c 2
 1011 100 l 2
 1135 100 1197 127 1251 160 c 1
 1250 240 1197 330 1108 330 c 0
 984 330 862 179 799 103 c 1
EndSplineSet
Colour: ffda6b
EndChar

StartChar: _.sad.medi
Encoding: 65554 -1 18
GlifName: _.sad.medi
Width: 1048
VWidth: 1304
GlyphClass: 1
UnlinkRmOvrlpSave: 1
Flags: HMW
LayerCount: 2
Fore
SplineSet
-50 49 m 0
 -50 76 -27 100 -1 100 c 0
 65 100 115 115 152 132 c 1
 138 154 127 179 115 207 c 0
 110 218 109 225 121 239 c 2
 161 280 l 2
 170 290 176 285 181 273 c 0
 203 213 237 151 300 120 c 1
 430 260 551 441 689 441 c 0
 838 441 889 307 889 209 c 0
 889 182 884 158 877 136 c 1
 888 125 906 117 926 112 c 0
 960 102 1000 100 1048 100 c 1
 1048 -0 l 1
 1024 -0 l 2
 926 0 862 26 828 69 c 1
 773 21 686 0 589 -0 c 2
 388 -0 l 1
 306 1 247 22 201 68 c 1
 169 34 105 0 -1 -0 c 0
 -25 0 -50 24 -50 49 c 0
359 100 m 1
 570 100 l 2
 694 100 758 127 811 160 c 1
 810 240 757 330 668 330 c 0
 544 330 422 176 359 100 c 1
EndSplineSet
Colour: ffda6b
EndChar

StartChar: _.sad.init
Encoding: 65555 -1 19
GlifName: _.sad.init
Width: 953
VWidth: 1304
GlyphClass: 1
UnlinkRmOvrlpSave: 1
Flags: HMW
LayerCount: 2
Fore
SplineSet
-50 49 m 0
 -50 76 -27 100 -1 100 c 0
 65 100 115 115 152 132 c 1
 138 154 127 179 115 207 c 0
 110 218 109 225 121 239 c 2
 161 280 l 2
 170 290 176 285 181 273 c 0
 203 213 237 151 300 120 c 1
 430 260 551 441 689 441 c 0
 838 441 889 307 889 209 c 0
 889 61 754 0 589 -0 c 2
 388 -0 l 1
 306 1 247 22 201 68 c 1
 169 34 105 0 -1 -0 c 0
 -25 0 -50 24 -50 49 c 0
359 100 m 1
 570 100 l 2
 694 100 758 127 811 160 c 1
 810 240 757 330 668 330 c 0
 544 330 422 176 359 100 c 1
EndSplineSet
Colour: ffda6b
EndChar

StartChar: _.ta.isol
Encoding: 65556 -1 20
GlifName: _.ta.isol
Width: 841
VWidth: 1304
GlyphClass: 1
UnlinkRmOvrlpSave: 1
Flags: HMW
LayerCount: 2
Fore
SplineSet
64 101 m 0
 64 114 68 122 81 122 c 0
 85 122 90 121 96 119 c 0
 123 110 146 105 171 103 c 1
 196 128 226 164 224 209 c 2
 209 667 l 2
 208 681 208 693 208 702 c 0
 208 735 214 744 245 770 c 2
 269 790 l 2
 276 796 281 800 286 800 c 0
 293 800 297 793 297 779 c 2
 297 244 l 1
 388 349 478 441 576 441 c 0
 725 441 777 307 777 209 c 0
 777 61 642 0 477 -0 c 2
 276 -0 l 1
 272 6 l 1
 272 -0 l 1
 197 0 154 0 97 21 c 0
 88 24 64 72 64 101 c 0
244 100 m 1
 458 100 l 2
 582 100 645 127 698 160 c 1
 697 240 644 330 555 330 c 0
 429 330 307 175 244 100 c 1
EndSplineSet
Colour: ffda6b
EndChar

StartChar: _.ta.fina
Encoding: 65557 -1 21
GlifName: _.ta.fina
Width: 936
VWidth: 1304
GlyphClass: 1
UnlinkRmOvrlpSave: 1
Flags: HMW
LayerCount: 2
Fore
SplineSet
64 101 m 0
 64 114 68 122 81 122 c 0
 85 122 90 121 96 119 c 0
 123 110 146 105 171 103 c 1
 196 128 226 164 224 209 c 2
 209 667 l 2
 208 681 208 693 208 702 c 0
 208 735 214 744 245 770 c 2
 269 790 l 2
 276 796 281 800 286 800 c 0
 293 800 297 793 297 779 c 2
 297 244 l 1
 388 349 478 441 576 441 c 0
 725 441 777 307 777 209 c 0
 777 182 772 158 765 136 c 1
 776 125 794 117 814 112 c 0
 848 102 888 100 936 100 c 1
 936 -0 l 1
 911 -0 l 2
 813 0 749 26 715 69 c 1
 660 21 574 0 477 -0 c 2
 276 -0 l 1
 272 6 l 1
 272 -0 l 1
 197 0 154 0 97 21 c 0
 88 24 64 72 64 101 c 0
244 100 m 1
 458 100 l 2
 582 100 645 127 698 160 c 1
 697 240 644 330 555 330 c 0
 429 330 307 175 244 100 c 1
EndSplineSet
Colour: ffda6b
EndChar

StartChar: _.ta.medi
Encoding: 65558 -1 22
GlifName: _.ta.medi
Width: 828
VWidth: 1304
GlyphClass: 1
UnlinkRmOvrlpSave: 1
Flags: HMW
LayerCount: 2
Fore
SplineSet
-50 50 m 0
 -50 75 -26 100 -1 100 c 2
 60 100 l 1
 87 127 118 163 116 209 c 2
 101 667 l 2
 100 681 100 693 100 702 c 0
 100 735 106 744 137 770 c 2
 161 790 l 2
 168 796 173 800 178 800 c 0
 185 800 189 793 189 779 c 2
 189 244 l 1
 280 349 370 441 468 441 c 0
 617 441 669 307 669 209 c 0
 669 182 664 158 657 136 c 1
 668 125 686 117 706 112 c 0
 740 102 780 100 828 100 c 1
 828 -0 l 1
 803 -0 l 2
 705 0 641 26 607 69 c 1
 552 21 466 0 369 -0 c 2
 0 -0 l 1
 -25 1 -50 24 -50 50 c 0
136 100 m 1
 350 100 l 2
 474 100 537 127 590 160 c 1
 589 240 536 330 447 330 c 0
 321 330 199 175 136 100 c 1
EndSplineSet
Colour: ffda6b
EndChar

StartChar: _.ta.init
Encoding: 65559 -1 23
GlifName: _.ta.init
Width: 733
VWidth: 1304
GlyphClass: 1
UnlinkRmOvrlpSave: 1
Flags: HMW
LayerCount: 2
Fore
SplineSet
-50 50 m 0
 -50 75 -26 100 -1 100 c 2
 60 100 l 1
 87 127 118 163 116 209 c 2
 101 667 l 2
 100 681 100 693 100 702 c 0
 100 735 106 744 137 770 c 2
 161 790 l 2
 168 796 173 800 178 800 c 0
 185 800 189 793 189 779 c 2
 189 244 l 1
 280 349 370 441 468 441 c 0
 617 441 669 307 669 209 c 0
 669 61 534 0 369 -0 c 2
 0 -0 l 1
 -25 1 -50 24 -50 50 c 0
136 100 m 1
 350 100 l 2
 474 100 537 127 590 160 c 1
 589 240 536 330 447 330 c 0
 321 330 199 175 136 100 c 1
EndSplineSet
Colour: ffda6b
EndChar

StartChar: _.ein.isol
Encoding: 65560 -1 24
GlifName: _.ein.isol
Width: 657
VWidth: 1304
GlyphClass: 1
UnlinkRmOvrlpSave: 1
Flags: HMW
LayerCount: 2
Fore
SplineSet
231 186 m 1
 195 228 169 292 169 359 c 0
 169 416 186 475 234 523 c 0
 272 562 326 579 380 579 c 0
 433 579 486 563 528 535 c 0
 538 529 535 517 534 512 c 2
 524 485 l 2
 522 476 514 474 505 476 c 0
 480 481 455 483 432 483 c 0
 355 483 290 459 243 422 c 1
 247 342 278 275 315 241 c 1
 315 240 l 1
 378 263 504 298 564 304 c 0
 581 305 579 289 577 280 c 2
 568 242 l 2
 566 233 565 225 543 219 c 0
 489 204 423 187 334 144 c 0
 204 78 123 -29 123 -120 c 0
 123 -215 205 -300 404 -300 c 0
 458 -300 521 -294 593 -280 c 1
 574 -381 l 1
 505 -394 444 -399 392 -399 c 0
 120 -399 64 -244 64 -131 c 0
 64 -21 123 100 231 186 c 1
EndSplineSet
Colour: ffda6b
EndChar

StartChar: _.ein.fina
Encoding: 65561 -1 25
GlifName: _.ein.fina
Width: 607
VWidth: 1304
GlyphClass: 1
UnlinkRmOvrlpSave: 1
Flags: HMW
LayerCount: 2
Fore
SplineSet
64 328 m 1
 81 428 l 1
 161 462 266 486 352 486 c 0
 439 486 507 462 513 399 c 1
 513 394 l 1
 515 320 455 230 365 165 c 1
 412 127 471 100 549 100 c 2
 607 100 l 1
 607 -0 l 1
 573 -0 l 2
 447 0 367 57 304 125 c 1
 193 59 127 -36 127 -120 c 0
 127 -215 209 -300 408 -300 c 0
 462 -300 525 -294 597 -280 c 1
 577 -381 l 1
 508 -394 447 -399 395 -399 c 0
 123 -399 67 -244 67 -131 c 0
 67 -18 130 109 246 196 c 1
 191 268 149 333 90 333 c 0
 82 333 73 331 64 328 c 1
183 367 m 1
 221 335 256 282 299 230 c 1
 376 270 444 312 444 345 c 0
 444 354 439 362 428 369 c 0
 404 384 371 390 335 390 c 0
 287 390 233 380 183 367 c 1
EndSplineSet
Colour: ffda6b
EndChar

StartChar: _.ein.medi
Encoding: 65562 -1 26
GlifName: _.ein.medi
Width: 580
VWidth: 1304
GlyphClass: 1
UnlinkRmOvrlpSave: 1
Flags: HMW
LayerCount: 2
Fore
SplineSet
-50 50 m 0
 -50 75 -25 99 -2 100 c 1
 60 100 l 2
 102 100 162 114 222 136 c 1
 169 201 134 264 73 264 c 0
 63 264 54 263 43 260 c 1
 60 359 l 1
 140 393 246 417 332 417 c 0
 419 417 487 393 492 330 c 0
 492 328 493 325 493 322 c 0
 493 255 440 182 362 122 c 1
 395 108 435 100 483 100 c 2
 580 100 l 1
 580 -0 l 1
 506 -0 l 2
 405 0 337 30 287 71 c 1
 209 29 121 1 36 -0 c 1
 0 -0 l 1
 -25 1 -50 24 -50 50 c 0
168 299 m 1
 205 266 237 209 290 165 c 1
 365 199 424 242 424 275 c 0
 424 284 419 293 408 300 c 0
 384 315 351 321 315 321 c 0
 269 321 216 311 168 299 c 1
EndSplineSet
Colour: ffda6b
EndChar

StartChar: _.ein.init
Encoding: 65563 -1 27
GlifName: _.ein.init
Width: 569
VWidth: 1304
GlyphClass: 1
UnlinkRmOvrlpSave: 1
Flags: HMW
LayerCount: 2
Fore
SplineSet
146 114 m 1
 125 154 110 201 110 253 c 0
 110 388 198 459 305 459 c 0
 358 459 416 441 470 406 c 0
 481 399 477 386 476 381 c 2
 467 356 l 2
 463 346 455 342 446 346 c 0
 420 358 388 363 355 363 c 0
 292 363 224 343 184 312 c 1
 188 237 215 176 249 140 c 1
 325 161 399 185 490 191 c 0
 507 192 506 176 504 167 c 2
 494 124 l 2
 492 115 493 104 470 100 c 0
 306 74 209 0 48 -0 c 2
 -1 -0 l 1
 -26 1 -50 24 -50 50 c 0
 -50 75 -26 100 -1 100 c 0
 53 100 102 105 146 114 c 1
EndSplineSet
Colour: ffda6b
EndChar

StartChar: _.feh.isol
Encoding: 65564 -1 28
GlifName: _.feh.isol
Width: 932
VWidth: 1304
GlyphClass: 1
UnlinkRmOvrlpSave: 1
Flags: HMW
LayerCount: 2
Fore
SplineSet
530 333 m 0
 530 473 615 580 695 580 c 0
 807 580 868 397 868 238 c 0
 868 216 867 194 865 173 c 0
 861 116 840 96 753 65 c 0
 647 31 546 -1 358 -1 c 0
 199 -1 64 47 64 217 c 0
 64 267 76 327 102 400 c 0
 104 406 113 409 118 407 c 2
 153 393 l 2
 158 391 163 384 159 373 c 0
 142 328 135 289 135 256 c 0
 135 138 238 100 369 100 c 0
 371 100 372 100 374 100 c 0
 539 100 680 134 788 171 c 1
 789 181 789 191 789 200 c 0
 789 209 789 219 788 228 c 1
 756 210 723 200 679 200 c 0
 576 200 530 269 530 333 c 0
681 480 m 0
 632 480 592 421 592 364 c 0
 592 308 642 300 679 300 c 0
 713 300 747 310 779 326 c 1
 761 421 720 479 681 480 c 0
EndSplineSet
Colour: ffda6b
EndChar

StartChar: _.feh.fina
Encoding: 65565 -1 29
GlifName: _.feh.fina
Width: 1004
VWidth: 1304
GlyphClass: 1
UnlinkRmOvrlpSave: 1
Flags: HMW
LayerCount: 2
Fore
SplineSet
890 248 m 0
 890 204 865 162 828 123 c 1
 875 108 925 100 969 100 c 2
 1004 100 l 1
 1004 -0 l 1
 974 -0 l 2
 878 0 793 24 727 58 c 1
 631 26 532 -1 358 -1 c 0
 199 -1 64 47 64 217 c 0
 64 267 76 327 102 400 c 0
 104 406 113 409 118 407 c 2
 153 393 l 2
 158 391 163 384 159 373 c 0
 142 328 135 289 135 256 c 0
 135 138 238 100 369 100 c 0
 371 100 372 100 374 100 c 0
 468 100 554 111 630 127 c 1
 600 158 581 189 572 220 c 0
 570 225 570 232 570 239 c 0
 570 307 636 460 738 460 c 0
 818 460 890 312 890 248 c 0
628 252 m 0
 628 223 675 186 738 156 c 1
 803 192 829 230 830 234 c 0
 830 273 771 359 730 359 c 0
 729 359 l 0
 690 359 628 300 628 252 c 0
EndSplineSet
Colour: ffda6b
EndChar

StartChar: _.feh.medi
Encoding: 65566 -1 30
GlifName: _.feh.medi
Width: 524
VWidth: 1304
GlyphClass: 1
UnlinkRmOvrlpSave: 1
Flags: HMW
LayerCount: 2
Fore
SplineSet
410 248 m 0
 410 204 385 162 348 123 c 1
 395 108 445 100 489 100 c 2
 524 100 l 1
 524 -0 l 1
 493 -0 l 2
 402 0 320 21 255 53 c 1
 196 21 121 0 30 -0 c 2
 -1 -0 l 1
 -25 1 -50 24 -50 49 c 0
 -50 75 -27 100 -1 100 c 0
 62 100 115 107 159 118 c 1
 123 151 101 186 92 220 c 0
 90 225 89 232 89 239 c 0
 89 307 156 460 258 460 c 0
 338 460 410 312 410 248 c 0
148 252 m 0
 148 223 195 186 258 156 c 1
 324 192 349 230 349 235 c 0
 349 275 290 359 249 359 c 0
 248 359 l 0
 210 359 148 300 148 252 c 0
EndSplineSet
Colour: ffda6b
EndChar

StartChar: _.feh.init
Encoding: 65567 -1 31
GlifName: _.feh.init
Width: 447
VWidth: 1304
GlyphClass: 1
UnlinkRmOvrlpSave: 1
Flags: HMW
LayerCount: 2
Fore
SplineSet
45 333 m 0
 45 473 130 580 210 580 c 0
 322 580 383 397 383 238 c 0
 383 216 382 194 380 173 c 1
 376 46 254 0 140 -0 c 2
 -1 -0 l 1
 -26 1 -50 24 -50 50 c 0
 -50 75 -26 100 -1 100 c 2
 140 100 l 2
 204 100 254 110 301 136 c 1
 303 159 304 182 304 204 c 0
 304 212 303 220 303 228 c 1
 271 210 238 200 194 200 c 0
 91 200 45 269 45 333 c 0
196 480 m 0
 147 480 107 421 107 364 c 0
 107 308 157 300 194 300 c 0
 228 300 261 310 293 326 c 1
 275 421 235 479 196 480 c 0
EndSplineSet
Colour: ffda6b
EndChar

StartChar: _.qaf.isol
Encoding: 65568 -1 32
GlifName: _.qaf.isol
Width: 756
VWidth: 1304
GlyphClass: 1
UnlinkRmOvrlpSave: 1
Flags: HMW
LayerCount: 2
Fore
SplineSet
355 133 m 0
 355 273 439 380 520 380 c 0
 632 380 692 197 692 38 c 0
 692 18 692 -1 690 -20 c 0
 681 -199 511 -302 351 -302 c 0
 203 -302 64 -215 64 -22 c 0
 64 42 80 119 116 208 c 0
 120 218 128 224 138 220 c 2
 168 208 l 2
 174 206 179 195 175 184 c 0
 148 114 136 57 136 8 c 0
 136 -140 245 -198 360 -198 c 0
 464 -198 574 -151 613 -83 c 1
 614 -73 615 -58 615 -42 c 0
 615 -20 614 5 613 27 c 1
 581 10 546 0 502 -0 c 0
 400 0 355 68 355 133 c 0
505 279 m 0
 455 279 417 221 417 164 c 0
 417 109 466 100 502 100 c 0
 536 100 571 109 602 125 c 1
 584 221 546 279 505 279 c 0
EndSplineSet
Colour: ffda6b
EndChar

StartChar: _.qaf.fina
Encoding: 65569 -1 33
GlifName: _.qaf.fina
Width: 821
VWidth: 1304
GlyphClass: 1
UnlinkRmOvrlpSave: 1
Flags: HMW
LayerCount: 2
Fore
SplineSet
691 -0 m 1
 691 -193 517 -302 351 -302 c 0
 203 -302 64 -215 64 -22 c 0
 64 42 80 119 116 208 c 0
 120 218 128 224 138 220 c 2
 168 208 l 2
 174 206 179 195 175 184 c 0
 148 114 136 57 136 8 c 0
 136 -140 245 -198 360 -198 c 0
 464 -198 574 -151 613 -83 c 1
 614 -74 614 -61 614 -47 c 0
 614 -33 614 -16 613 -0 c 1
 502 -0 l 2
 400 0 355 68 355 133 c 0
 355 273 439 380 520 380 c 0
 617 380 676 242 690 100 c 1
 821 100 l 1
 821 -0 l 1
 691 -0 l 1
505 279 m 0
 455 279 417 221 417 164 c 0
 417 109 466 100 502 100 c 2
 607 100 l 1
 591 211 548 279 505 279 c 0
EndSplineSet
Colour: ffda6b
EndChar

StartChar: _.kaf.isol.fa
Encoding: 65570 -1 34
GlifName: _.kaf.isol.fa
Width: 1028
VWidth: 1304
GlyphClass: 1
UnlinkRmOvrlpSave: 1
Flags: HMW
LayerCount: 2
Fore
SplineSet
64 217 m 0
 64 267 76 327 102 400 c 0
 104 406 113 409 118 407 c 2
 153 393 l 2
 158 391 163 384 159 373 c 0
 142 328 135 289 135 256 c 0
 135 138 238 100 369 100 c 0
 371 100 372 100 374 100 c 0
 540 100 681 134 791 172 c 1
 785 289 674 403 539 485 c 0
 526 492 520 505 520 517 c 0
 520 520 520 522 521 525 c 2
 540 581 l 2
 550 609 549 619 599 641 c 2
 949 800 l 2
 951 801 952 801 954 801 c 0
 961 801 964 794 964 783 c 0
 964 754 944 702 921 692 c 2
 617 554 l 1
 799 431 864 307 865 200 c 1
 865 198 l 2
 865 122 853 99 753 65 c 0
 647 31 546 -1 358 -1 c 0
 199 -1 64 47 64 217 c 0
EndSplineSet
Colour: ffda6b
EndChar

StartChar: _.kaf.isol.ar
Encoding: 65571 -1 35
GlifName: _.kaf.isol.ar
Width: 929
VWidth: 1304
GlyphClass: 1
UnlinkRmOvrlpSave: 1
Flags: HMW
LayerCount: 2
Fore
SplineSet
64 217 m 0
 64 267 76 327 102 400 c 0
 104 406 113 409 118 407 c 2
 153 393 l 2
 158 391 163 384 159 373 c 0
 142 328 135 289 135 256 c 0
 135 138 238 100 369 100 c 0
 371 100 372 100 374 100 c 0
 540 100 682 134 792 172 c 1
 776 700 l 2
 776 707 776 713 776 718 c 0
 776 752 784 762 853 800 c 0
 860 800 865 798 865 789 c 2
 865 200 l 2
 865 121 853 99 753 65 c 0
 647 31 546 -1 358 -1 c 0
 199 -1 64 47 64 217 c 0
EndSplineSet
Colour: ffda6b
EndChar

StartChar: _.kaf.fina.fa
Encoding: 65572 -1 36
GlifName: _.kaf.fina.fa
Width: 1074
VWidth: 1304
GlyphClass: 1
UnlinkRmOvrlpSave: 1
Flags: HMW
LayerCount: 2
Fore
SplineSet
64 217 m 0
 64 267 76 327 102 400 c 0
 104 406 113 409 118 407 c 2
 153 393 l 2
 158 391 163 384 159 373 c 0
 142 328 135 289 135 256 c 0
 135 138 238 100 369 100 c 0
 371 100 372 100 374 100 c 0
 541 100 683 135 793 172 c 0
 795 173 800 175 802 176 c 1
 764 231 731 289 690 337 c 0
 646 391 599 438 539 485 c 0
 527 493 520 507 520 518 c 0
 520 521 520 523 521 525 c 2
 540 581 l 2
 550 609 549 619 599 641 c 2
 949 800 l 2
 951 801 952 801 954 801 c 0
 961 801 964 794 964 783 c 0
 964 754 944 702 921 692 c 2
 610 551 l 1
 662 507 712 454 765 391 c 0
 847 291 925 100 1074 100 c 1
 1074 -0 l 1
 971 0 903 51 846 117 c 1
 831 97 803 82 753 65 c 0
 647 31 546 -1 358 -1 c 0
 199 -1 64 47 64 217 c 0
EndSplineSet
Colour: ffda6b
EndChar

StartChar: _.kaf.fina.ar
Encoding: 65573 -1 37
GlifName: _.kaf.fina.ar
Width: 1058
VWidth: 1304
GlyphClass: 1
UnlinkRmOvrlpSave: 1
Flags: HMW
LayerCount: 2
Fore
SplineSet
64 217 m 0
 64 267 76 327 102 400 c 0
 104 406 113 409 118 407 c 2
 153 393 l 2
 158 391 163 384 159 373 c 0
 142 328 135 289 135 256 c 0
 135 138 238 100 369 100 c 0
 371 100 372 100 374 100 c 0
 540 100 682 134 792 172 c 1
 776 700 l 2
 776 707 776 713 776 718 c 0
 776 752 784 762 853 800 c 0
 860 800 865 798 865 789 c 2
 865 244 l 1
 901 160 950 101 1058 100 c 1
 1058 -0 l 1
 944 0 885 33 838 107 c 1
 821 92 794 80 753 65 c 0
 647 31 546 -1 358 -1 c 0
 199 -1 64 47 64 217 c 0
EndSplineSet
Colour: ffda6b
EndChar

StartChar: _.kaf.medi
Encoding: 65574 -1 38
GlifName: _.kaf.medi
Width: 550
VWidth: 1304
GlyphClass: 1
UnlinkRmOvrlpSave: 1
Flags: HMW
LayerCount: 2
Fore
SplineSet
-50 48 m 0
 -50 74 -27 100 -1 100 c 2
 89 100 l 2
 117 100 246 121 247 160 c 0
 247 229 204 293 165 337 c 0
 121 391 74 438 14 485 c 0
 2 493 -4 507 -4 518 c 0
 -4 521 -4 523 -3 525 c 2
 15 581 l 2
 25 609 24 619 74 641 c 2
 424 800 l 2
 426 801 428 801 430 801 c 0
 437 801 439 794 439 783 c 0
 439 754 420 702 397 692 c 2
 85 551 l 1
 137 507 188 454 241 391 c 0
 323 291 401 100 550 100 c 1
 550 -0 l 1
 440 0 369 57 311 130 c 1
 283 36 191 0 81 -0 c 2
 -1 -0 l 1
 -26 1 -50 23 -50 48 c 0
EndSplineSet
Colour: ffda6b
EndChar

StartChar: _.kaf.init
Encoding: 65575 -1 39
GlifName: _.kaf.init
Width: 484
VWidth: 1304
GlyphClass: 1
UnlinkRmOvrlpSave: 1
Flags: HMW
LayerCount: 2
Fore
SplineSet
-50 50 m 0
 -50 75 -26 100 -1 100 c 2
 89 100 l 2
 121 100 247 120 247 162 c 0
 247 283 134 401 -6 485 c 0
 -19 492 -24 505 -24 517 c 0
 -24 520 -24 522 -23 525 c 2
 -4 581 l 2
 6 609 5 619 55 641 c 2
 404 800 l 2
 406 801 408 801 410 801 c 0
 417 801 420 794 420 783 c 0
 420 754 400 702 377 692 c 2
 73 554 l 1
 256 430 321 306 321 198 c 0
 321 54 213 0 80 -0 c 2
 -1 -0 l 1
 -26 1 -50 24 -50 50 c 0
EndSplineSet
Colour: ffda6b
EndChar

StartChar: _.kaf_hamze.isol.ar
Encoding: 65576 -1 40
GlifName: _.kaf_hamze.isol.ar
Width: 299
VWidth: 1304
GlyphClass: 1
UnlinkRmOvrlpSave: 1
Flags: HMW
LayerCount: 2
Fore
SplineSet
64 -20 m 1
 64 22 l 1
 69 22 75 21 80 21 c 0
 138 21 192 42 192 63 c 0
 192 73 178 84 146 92 c 0
 105 103 86 137 86 172 c 0
 86 215 116 259 173 259 c 0
 187 259 203 256 220 250 c 1
 220 205 l 1
 209 211 198 214 187 214 c 0
 155 214 127 193 127 171 c 0
 127 156 141 140 174 130 c 0
 213 118 235 93 235 66 c 0
 235 25 184 -20 70 -20 c 0
 68 -20 66 -20 64 -20 c 1
EndSplineSet
Colour: ffda6b
EndChar

StartChar: _.ghaf.isol
Encoding: 65577 -1 41
GlifName: _.ghaf.isol
Width: 1028
VWidth: 0
GlyphClass: 1
UnlinkRmOvrlpSave: 1
Flags: HMW
LayerCount: 2
Fore
SplineSet
64 217 m 0
 64 267 76 327 102 400 c 0
 104 406 113 409 118 407 c 2
 153 393 l 2
 158 391 163 384 159 373 c 0
 142 328 135 289 135 256 c 0
 135 138 238 100 369 100 c 0
 371 100 372 100 374 100 c 0
 540 100 681 134 791 172 c 1
 785 289 674 403 539 485 c 0
 526 492 520 505 520 517 c 0
 520 520 520 522 521 525 c 2
 540 581 l 2
 550 609 549 619 599 641 c 2
 949 800 l 2
 951 801 952 801 954 801 c 0
 961 801 964 794 964 783 c 0
 964 754 944 702 921 692 c 2
 617 554 l 1
 799 431 864 307 865 200 c 1
 865 198 l 2
 865 122 853 99 753 65 c 0
 647 31 546 -1 358 -1 c 0
 199 -1 64 47 64 217 c 0
571 692 m 0
 571 707 582 737 595 743 c 2
 875 869 l 2
 876 870 877 870 878 870 c 0
 882 870 883 866 883 860 c 0
 883 845 873 818 862 812 c 2
 579 684 l 2
 578 683 577 683 576 683 c 0
 573 683 571 687 571 692 c 0
EndSplineSet
Colour: ffda6b
EndChar

StartChar: _.ghaf.fina
Encoding: 65578 -1 42
GlifName: _.ghaf.fina
Width: 1074
VWidth: 0
GlyphClass: 1
Flags: HMW
LayerCount: 2
Fore
SplineSet
64 217 m 0
 64 267 76 327 102 400 c 0
 104 406 113 409 118 407 c 2
 153 393 l 2
 158 391 163 384 159 373 c 0
 142 328 135 289 135 256 c 0
 135 138 238 100 369 100 c 0
 371 100 372 100 374 100 c 0
 541 100 683 135 793 172 c 0
 795 173 800 175 802 176 c 1
 764 231 731 289 690 337 c 0
 646 391 599 438 539 485 c 0
 527 493 520 507 520 518 c 0
 520 521 520 523 521 525 c 2
 540 581 l 2
 550 609 549 619 599 641 c 2
 949 800 l 2
 951 801 952 801 954 801 c 0
 961 801 964 794 964 783 c 0
 964 754 944 702 921 692 c 2
 610 551 l 1
 662 507 712 454 765 391 c 0
 847 291 925 100 1074 100 c 1
 1074 -0 l 1
 971 0 903 51 846 117 c 1
 831 97 803 82 753 65 c 0
 647 31 546 -1 358 -1 c 0
 199 -1 64 47 64 217 c 0
571 692 m 0
 571 707 582 737 595 743 c 2
 875 869 l 2
 876 870 877 870 878 870 c 0
 882 870 883 866 883 860 c 0
 883 845 873 818 862 812 c 2
 579 684 l 2
 578 683 577 683 576 683 c 0
 573 683 571 687 571 692 c 0
EndSplineSet
Colour: ffda6b
EndChar

StartChar: _.lam.isol
Encoding: 65580 -1 44
GlifName: _.lam.isol
Width: 711
VWidth: 1304
GlyphClass: 1
UnlinkRmOvrlpSave: 1
Flags: HMW
LayerCount: 2
Fore
SplineSet
64 -44 m 0
 64 27 81 115 121 220 c 0
 125 230 133 235 143 231 c 2
 173 220 l 2
 179 218 184 208 180 196 c 0
 147 110 133 39 133 -16 c 0
 133 -150 216 -201 317 -201 c 0
 420 -200 537 -138 583 -58 c 1
 559 667 l 2
 558 681 558 693 558 702 c 0
 558 735 564 744 595 770 c 2
 618 790 l 2
 625 796 631 800 636 800 c 0
 643 800 647 793 647 779 c 2
 647 -9 l 1
 632 -192 461 -303 306 -303 c 0
 174 -303 64 -225 64 -44 c 0
EndSplineSet
Colour: ffda6b
EndChar

StartChar: _.lam.fina
Encoding: 65581 -1 45
GlifName: _.lam.fina
Width: 825
VWidth: 1304
GlyphClass: 1
UnlinkRmOvrlpSave: 1
Flags: HMW
LayerCount: 2
Fore
SplineSet
64 -44 m 0
 64 27 81 115 121 220 c 0
 125 230 133 235 143 231 c 2
 173 220 l 2
 179 218 184 208 180 196 c 0
 147 110 133 39 133 -16 c 0
 133 -150 216 -201 317 -201 c 0
 420 -200 537 -138 583 -58 c 1
 559 667 l 2
 558 681 558 693 558 702 c 0
 558 735 564 744 595 770 c 2
 618 790 l 2
 625 796 631 800 636 800 c 0
 643 800 647 793 647 779 c 2
 647 148 l 1
 654 132 677 118 703 112 c 0
 739 102 777 100 825 100 c 1
 825 -0 l 1
 800 -0 l 2
 732 0 684 12 647 33 c 1
 647 -9 l 1
 632 -192 461 -303 306 -303 c 0
 174 -303 64 -225 64 -44 c 0
EndSplineSet
Colour: ffda6b
EndChar

StartChar: _.lam.medi
Encoding: 65582 -1 46
GlifName: _.lam.medi
Width: 439
VWidth: 1304
GlyphClass: 1
UnlinkRmOvrlpSave: 1
Flags: HMW
LayerCount: 2
Fore
SplineSet
-1 100 m 0
 86 100 183 111 183 185 c 1
 172 667 l 2
 172 680 171 690 171 699 c 0
 171 734 175 743 207 770 c 2
 231 790 l 2
 238 796 243 800 248 800 c 0
 255 800 259 793 259 779 c 2
 259 156 l 1
 260 136 287 119 318 112 c 0
 357 101 398 100 439 100 c 1
 439 -0 l 1
 415 -0 l 2
 315 0 254 26 220 69 c 1
 184 26 123 0 23 -0 c 2
 -1 -0 l 2
 -25 0 -50 24 -50 49 c 0
 -50 76 -27 100 -1 100 c 0
EndSplineSet
Colour: ffda6b
EndChar

StartChar: _.lam.init
Encoding: 65583 -1 47
GlifName: _.lam.init
Width: 323
VWidth: 1304
GlyphClass: 1
UnlinkRmOvrlpSave: 1
Flags: HMW
LayerCount: 2
Fore
SplineSet
-50 49 m 0
 -50 76 -27 100 -1 100 c 0
 78 100 127 106 180 139 c 1
 191 149 l 1
 156 665 l 2
 155 683 153 696 153 707 c 0
 153 735 161 744 188 770 c 2
 210 791 l 2
 217 797 222 801 227 801 c 0
 234 801 238 794 239 780 c 2
 259 207 l 2
 259 204 259 202 259 199 c 0
 259 149 248 106 222 72 c 0
 188 26 125 0 23 -0 c 2
 -1 -0 l 2
 -25 0 -50 24 -50 49 c 0
EndSplineSet
Colour: ffda6b
EndChar

StartChar: _.mim.isol
Encoding: 65584 -1 48
GlifName: _.mim.isol
Width: 655
VWidth: 1304
GlyphClass: 1
UnlinkRmOvrlpSave: 1
Flags: HMW
LayerCount: 2
Fore
SplineSet
64 69 m 0
 64 197 181 238 253 240 c 1
 236 268 l 1
 278 364 l 2
 304 426 343 449 385 449 c 0
 470 449 567 351 587 280 c 0
 590 271 591 260 590 249 c 0
 586 187 527 101 459 101 c 0
 458 101 l 0
 394 101 340 136 261 136 c 0
 260 136 258 136 257 136 c 0
 220 136 164 124 130 91 c 1
 184 -302 l 1
 184 -314 185 -324 185 -332 c 0
 185 -356 178 -369 118 -402 c 0
 111 -402 106 -399 106 -390 c 2
 65 48 l 2
 64 55 64 62 64 69 c 0
274 240 m 1
 359 236 426 200 469 200 c 0
 491 200 510 207 528 218 c 1
 499 271 418 352 361 352 c 0
 342 352 326 343 315 321 c 2
 274 240 l 1
EndSplineSet
Colour: ffda6b
EndChar

StartChar: _.mim.fina
Encoding: 65585 -1 49
GlifName: _.mim.fina
Width: 646
VWidth: 1304
GlyphClass: 1
UnlinkRmOvrlpSave: 1
Flags: HMW
LayerCount: 2
Fore
SplineSet
64 83 m 0
 64 264 258 302 385 324 c 1
 394 342 l 2
 400 355 408 365 416 365 c 0
 422 365 427 359 432 348 c 0
 511 162 492 100 646 100 c 1
 646 -0 l 1
 559 0 506 24 470 63 c 1
 453 -11 404 -47 354 -47 c 0
 286 -47 215 18 215 145 c 0
 215 156 216 168 217 180 c 1
 181 165 151 148 129 128 c 1
 184 -277 l 2
 184 -280 184 -283 184 -285 c 0
 184 -316 155 -332 129 -350 c 0
 122 -355 117 -357 113 -357 c 0
 106 -357 103 -351 102 -340 c 2
 65 56 l 2
 64 65 64 74 64 83 c 0
280 202 m 1
 279 104 331 52 371 52 c 0
 396 52 416 72 416 114 c 0
 416 150 398 196 387 226 c 1
 348 219 312 211 280 202 c 1
EndSplineSet
Colour: ffda6b
EndChar

StartChar: _.mim.medi
Encoding: 65586 -1 50
GlifName: _.mim.medi
Width: 684
VWidth: 1304
GlyphClass: 1
UnlinkRmOvrlpSave: 1
Flags: HMW
LayerCount: 2
Fore
SplineSet
-50 50 m 0
 -49 76 -25 100 0 100 c 0
 145 100 179 203 238 300 c 0
 256 329 274 341 292 341 c 0
 344 341 402 247 489 176 c 0
 542 134 583 100 684 100 c 1
 684 -0 l 1
 592 0 531 28 479 65 c 1
 444 -2 405 -27 359 -27 c 0
 302 -27 235 11 153 60 c 1
 115 24 65 0 0 -0 c 0
 -25 0 -50 24 -50 50 c 0
215 136 m 1
 282 98 326 72 365 72 c 0
 388 72 410 81 433 101 c 1
 432 102 430 103 429 104 c 0
 358 165 310 228 279 228 c 0
 270 228 261 223 255 210 c 0
 243 185 230 161 215 136 c 1
EndSplineSet
Colour: ffda6b
EndChar

StartChar: _.mim.init
Encoding: 65587 -1 51
GlifName: _.mim.init
Width: 539
VWidth: 1304
GlyphClass: 1
UnlinkRmOvrlpSave: 1
Flags: HMW
LayerCount: 2
Fore
SplineSet
296 354 m 0
 376 354 475 257 475 134 c 0
 475 27 422 -9 358 -9 c 0
 289 -9 206 33 164 74 c 1
 131 28 84 0 -1 -0 c 0
 -26 0 -50 24 -50 50 c 0
 -50 75 -26 100 -1 100 c 0
 61 100 116 120 152 172 c 1
 175 208 181 237 215 300 c 0
 234 338 263 354 296 354 c 0
207 161 m 1
 266 121 320 92 365 92 c 0
 384 92 401 97 417 108 c 1
 395 181 327 250 280 250 c 0
 268 250 257 245 248 235 c 1
 227 203 219 184 207 161 c 1
EndSplineSet
Colour: ffda6b
EndChar

StartChar: _.nun.isol
Encoding: 65588 -1 52
GlifName: _.nun.isol
Width: 748
VWidth: 1305
GlyphClass: 1
UnlinkRmOvrlpSave: 1
Flags: HMW
LayerCount: 2
Fore
SplineSet
684 -3 m 0
 684 -189 496 -299 332 -299 c 0
 192 -299 64 -219 64 -34 c 0
 64 33 80 113 119 208 c 0
 123 218 133 224 142 220 c 2
 171 208 l 2
 178 206 184 195 179 184 c 0
 148 105 134 40 134 -12 c 0
 134 -150 228 -199 333 -199 c 0
 449 -199 578 -139 607 -73 c 0
 609 -67 609 -60 609 -52 c 0
 609 11 569 143 548 208 c 0
 543 224 546 232 556 241 c 2
 605 282 l 2
 610 287 618 288 622 278 c 0
 650 198 684 73 684 -3 c 0
EndSplineSet
Colour: ffda6b
EndChar

StartChar: _.nun.fina
Encoding: 65589 -1 53
GlifName: _.nun.fina
Width: 835
VWidth: 1413
GlyphClass: 1
UnlinkRmOvrlpSave: 1
Flags: HMW
LayerCount: 2
Fore
SplineSet
684 1 m 0
 684 -188 498 -299 332 -299 c 0
 192 -299 64 -219 64 -34 c 0
 64 33 80 113 119 208 c 0
 123 218 133 224 142 220 c 2
 171 208 l 2
 178 206 184 195 179 184 c 0
 148 105 134 40 134 -12 c 0
 134 -150 228 -199 333 -199 c 0
 449 -199 578 -139 607 -73 c 0
 609 -67 609 -60 609 -52 c 0
 609 11 569 143 548 208 c 0
 543 224 546 232 556 241 c 2
 605 282 l 2
 610 287 618 288 622 278 c 0
 627 264 633 248 638 232 c 0
 638 231 638 230 639 229 c 0
 675 133 756 100 835 100 c 1
 835 -0 l 1
 780 0 723 18 681 43 c 1
 683 28 684 14 684 1 c 0
EndSplineSet
Colour: ffda6b
EndChar

StartChar: _.vav.isol
Encoding: 65590 -1 54
GlifName: _.vav.isol
Width: 507
VWidth: 1304
GlyphClass: 1
UnlinkRmOvrlpSave: 1
Flags: HMW
LayerCount: 2
Fore
SplineSet
268 362 m 0
 381 362 443 202 443 55 c 0
 443 -115 272 -282 160 -301 c 1
 137 -301 64 -265 64 -241 c 0
 64 -238 66 -235 69 -232 c 1
 303 -147 352 -26 364 8 c 0
 364 10 365 14 364 18 c 2
 364 21 l 1
 331 6 297 0 261 -0 c 0
 158 0 110 61 110 140 c 0
 114 220 146 362 268 362 c 0
252 260 m 0
 208 260 173 210 173 155 c 0
 173 101 225 100 261 100 c 2
 266 100 l 2
 294 100 326 108 356 120 c 1
 340 199 301 260 252 260 c 0
EndSplineSet
Colour: ffda6b
EndChar

StartChar: _.vav.fina
Encoding: 65591 -1 55
GlifName: _.vav.fina
Width: 592
VWidth: 1304
GlyphClass: 1
UnlinkRmOvrlpSave: 1
Flags: HMW
LayerCount: 2
Fore
SplineSet
64 -241 m 0
 64 -238 66 -235 69 -232 c 1
 286 -153 344 -43 361 -0 c 1
 261 -0 l 2
 158 0 110 61 110 140 c 0
 114 220 146 362 268 362 c 0
 371 362 428 232 439 100 c 1
 592 100 l 1
 592 -0 l 1
 437 -0 l 1
 406 -149 260 -284 160 -301 c 1
 137 -301 64 -265 64 -241 c 0
252 260 m 0
 208 260 173 210 173 155 c 0
 173 101 225 100 261 100 c 2
 359 100 l 1
 345 189 305 260 252 260 c 0
EndSplineSet
Colour: ffda6b
EndChar

StartChar: _.dal.isol
Encoding: 65592 -1 56
GlifName: _.dal.isol
Width: 515
VWidth: 1304
GlyphClass: 1
UnlinkRmOvrlpSave: 1
Flags: HMW
LayerCount: 2
Fore
SplineSet
64 104 m 0
 64 126 63 149 86 149 c 0
 96 149 105 144 105 133 c 0
 107 83 150 64 204 64 c 0
 257 64 322 82 370 108 c 1
 371 114 370 120 370 126 c 0
 370 190 336 254 198 368 c 0
 191 373 190 380 194 391 c 1
 229 452 l 2
 230 454 237 465 246 459 c 0
 349 387 451 284 451 157 c 0
 451 134 447 110 440 85 c 0
 436 67 431 50 424 40 c 0
 408 14 298 -40 204 -40 c 0
 129 -40 64 -6 64 104 c 0
EndSplineSet
Colour: ffda6b
EndChar

StartChar: _.dal.fina
Encoding: 65593 -1 57
GlifName: _.dal.fina
Width: 576
VWidth: 1304
GlyphClass: 1
UnlinkRmOvrlpSave: 1
Flags: HMW
LayerCount: 2
Fore
SplineSet
64 104 m 0
 64 126 63 149 86 149 c 0
 96 149 105 144 105 133 c 0
 107 83 149 64 204 64 c 0
 259 64 326 84 374 111 c 1
 365 133 358 158 352 186 c 2
 306 410 l 2
 305 416 308 426 313 431 c 1
 368 471 l 2
 372 473 382 470 383 465 c 2
 435 200 l 2
 446 141 476 100 576 100 c 1
 576 -0 l 1
 503 0 457 13 424 40 c 1
 407 14 298 -39 204 -39 c 0
 129 -39 64 -5 64 104 c 0
EndSplineSet
Colour: ffda6b
EndChar

StartChar: _.ree.isol
Encoding: 65594 -1 58
GlifName: _.ree.isol
Width: 506
VWidth: 1304
GlyphClass: 1
UnlinkRmOvrlpSave: 1
Flags: HMW
LayerCount: 2
Fore
SplineSet
64 -241 m 0
 64 -238 66 -235 69 -232 c 1
 303 -147 352 -26 364 8 c 0
 364 10 365 12 365 15 c 0
 365 30 360 60 357 71 c 0
 345 118 321 186 304 235 c 0
 300 246 304 254 313 261 c 2
 355 298 l 2
 366 307 377 309 383 293 c 0
 409 226 442 142 442 54 c 0
 442 -115 272 -281 160 -301 c 1
 137 -301 64 -265 64 -241 c 0
EndSplineSet
Colour: ffda6b
EndChar

StartChar: _.ree.fina
Encoding: 65595 -1 59
GlifName: _.ree.fina
Width: 602
VWidth: 1304
GlyphClass: 1
UnlinkRmOvrlpSave: 1
Flags: HMW
LayerCount: 2
Fore
SplineSet
64 -241 m 0
 64 -238 66 -235 69 -232 c 1
 303 -147 352 -26 364 8 c 0
 364 10 365 12 365 15 c 0
 365 30 360 60 357 71 c 0
 345 118 321 186 304 235 c 0
 300 246 304 254 313 261 c 2
 355 298 l 2
 366 307 377 309 383 293 c 0
 392 269 405 238 411 210 c 1
 455 100 544 101 602 101 c 1
 602 -0 l 1
 552 0 489 9 442 36 c 1
 430 -126 268 -283 160 -301 c 1
 137 -301 64 -265 64 -241 c 0
EndSplineSet
Colour: ffda6b
EndChar

StartChar: _.he8.isol
Encoding: 65596 -1 60
GlifName: _.he8.isol
Width: 450
VWidth: 1304
GlyphClass: 1
UnlinkRmOvrlpSave: 1
Flags: HMW
LayerCount: 2
Fore
SplineSet
64 134 m 0
 64 191 88 267 147 363 c 1
 125 381 l 2
 120 385 119 395 123 400 c 2
 158 463 l 2
 160 468 167 475 174 469 c 2
 190 454 l 1
 381 293 386 248 386 183 c 0
 386 41 269 0 210 -0 c 0
 124 0 64 44 64 134 c 0
119 150 m 0
 119 117 142 100 205 100 c 0
 260 100 308 132 318 162 c 0
 319 165 320 169 320 173 c 0
 320 218 237 286 189 327 c 1
 151 249 119 189 119 150 c 0
EndSplineSet
Colour: ffda6b
EndChar

StartChar: _.he8.fina
Encoding: 65597 -1 61
GlifName: _.he8.fina
Width: 479
VWidth: 1304
GlyphClass: 1
UnlinkRmOvrlpSave: 1
Flags: HMW
LayerCount: 2
Fore
SplineSet
64 193 m 0
 64 256 139 298 219 356 c 1
 208 410 l 2
 207 416 209 426 215 431 c 2
 271 471 l 2
 275 473 285 470 286 465 c 2
 337 200 l 2
 348 141 379 100 479 100 c 1
 479 -0 l 1
 356 0 304 39 275 114 c 1
 239 99 204 92 174 92 c 0
 109 92 64 125 64 193 c 0
122 211 m 0
 122 187 140 179 165 179 c 0
 191 179 223 187 252 197 c 1
 229 311 l 1
 186 284 122 243 122 211 c 0
EndSplineSet
Colour: ffda6b
EndChar

StartChar: _.he8.medi
Encoding: 65598 -1 62
GlifName: _.he8.medi
Width: 497
VWidth: 1304
GlyphClass: 1
UnlinkRmOvrlpSave: 1
Flags: HMW
LayerCount: 2
Fore
SplineSet
-50 50 m 0
 -49 75 -27 99 -2 100 c 0
 26 100 55 102 82 104 c 1
 81 234 145 354 197 432 c 1
 217 463 l 2
 226 478 234 468 239 463 c 0
 284 410 344 317 344 234 c 0
 344 227 344 221 343 214 c 0
 326 106 247 49 157 22 c 1
 175 -20 208 -61 258 -100 c 1
 253 -83 251 -65 251 -48 c 0
 251 29 297 100 375 100 c 2
 497 100 l 1
 497 -0 l 1
 398 -0 l 2
 334 0 309 -31 309 -69 c 0
 309 -105 333 -146 370 -171 c 0
 380 -176 391 -181 402 -187 c 0
 412 -192 414 -192 408 -201 c 2
 370 -262 l 2
 368 -267 359 -273 349 -271 c 0
 196 -186 123 -89 96 7 c 1
 63 2 31 0 0 -0 c 1
 -25 1 -50 24 -50 50 c 0
137 114 m 1
 225 132 292 161 292 206 c 0
 292 238 266 290 221 348 c 1
 169 264 136 187 137 114 c 1
EndSplineSet
Colour: ffda6b
EndChar

StartChar: _.he8.init
Encoding: 65599 -1 63
GlifName: _.he8.init
Width: 605
VWidth: 1304
GlyphClass: 1
UnlinkRmOvrlpSave: 1
Flags: HMW
LayerCount: 2
Fore
SplineSet
-50 50 m 0
 -50 76 -26 100 -1 100 c 0
 37 100 75 107 111 117 c 1
 84 148 68 182 68 219 c 0
 68 241 75 264 87 287 c 0
 102 315 125 353 153 384 c 1
 145 389 l 1
 165 489 l 1
 454 344 541 262 541 170 c 0
 541 140 532 110 518 75 c 0
 498 25 459 0 401 -0 c 0
 326 0 253 19 195 50 c 1
 137 18 68 0 -1 -0 c 0
 -26 0 -50 24 -50 50 c 0
292 242 m 0
 292 287 274 338 226 338 c 0
 188 338 150 305 137 271 c 0
 134 264 133 257 133 250 c 0
 133 216 167 185 211 159 c 1
 259 188 292 216 292 242 c 0
287 124 m 1
 330 109 375 100 402 100 c 0
 444 100 464 106 476 134 c 1
 474 181 433 221 341 279 c 1
 342 274 342 269 341 263 c 0
 341 211 321 165 287 124 c 1
EndSplineSet
Colour: ffda6b
EndChar

StartChar: _.yeh.fina
Encoding: 65600 -1 64
GlifName: _.yeh.fina
Width: 790
VWidth: 1304
GlyphClass: 1
UnlinkRmOvrlpSave: 1
Flags: HMW
LayerCount: 2
Fore
SplineSet
64 -15 m 0
 64 50 79 128 114 220 c 0
 118 230 126 235 136 231 c 2
 166 220 l 2
 172 218 177 208 173 196 c 0
 150 130 139 73 139 25 c 0
 139 -138 260 -198 382 -198 c 0
 486 -198 591 -155 624 -94 c 0
 626 -89 627 -83 627 -78 c 0
 627 -27 517 15 445 44 c 0
 433 49 437 60 441 70 c 2
 454 101 l 2
 467 133 473 145 487 145 c 0
 491 145 496 145 501 143 c 0
 628 102 742 100 790 100 c 1
 790 -0 l 1
 757 0 722 4 688 10 c 1
 703 -9 708 -27 708 -46 c 0
 708 -63 703 -81 696 -100 c 0
 655 -223 503 -300 358 -300 c 0
 207 -300 64 -216 64 -15 c 0
EndSplineSet
Colour: ffda6b
EndChar

StartChar: _.yeh.isol
Encoding: 65601 -1 65
GlifName: _.yeh.isol
Width: 792
VWidth: 1304
GlyphClass: 1
UnlinkRmOvrlpSave: 1
Flags: HMW
LayerCount: 2
Fore
SplineSet
64 -15 m 0
 64 51 79 128 114 220 c 0
 118 230 126 235 136 231 c 2
 166 220 l 2
 172 218 177 208 173 196 c 0
 149 130 139 73 139 25 c 0
 139 -138 261 -198 383 -198 c 0
 484 -198 586 -157 621 -99 c 0
 627 -89 633 -78 633 -66 c 0
 633 -30 573 -19 499 -0 c 0
 427 18 391 51 391 109 c 0
 391 132 396 160 408 192 c 0
 441 281 546 386 631 386 c 0
 667 386 700 367 722 319 c 0
 726 310 728 301 728 293 c 0
 728 273 718 258 706 258 c 0
 703 258 699 259 696 261 c 0
 677 273 657 279 636 279 c 0
 569 279 498 224 464 154 c 0
 461 148 460 143 460 138 c 0
 460 115 492 107 530 97 c 0
 615 71 707 59 707 -35 c 0
 707 -45 706 -55 704 -67 c 0
 683 -210 516 -300 358 -300 c 0
 207 -300 64 -217 64 -15 c 0
EndSplineSet
Colour: ffda6b
EndChar

StartChar: _.hamze.isol
Encoding: 65602 -1 66
GlifName: _.hamze.isol
Width: 502
VWidth: 1304
GlyphClass: 2
Flags: HMW
LayerCount: 2
Fore
SplineSet
66 58 m 2
 62 65 65 76 72 80 c 2
 186 134 l 1
 124 164 96 218 96 270 c 0
 96 348 158 424 265 424 c 0
 287 424 312 420 338 413 c 0
 352 412 352 404 350 394 c 2
 341 353 l 2
 340 348 342 334 322 340 c 0
 305 345 289 346 274 346 c 0
 211 346 165 310 165 267 c 0
 165 234 193 196 263 168 c 1
 396 230 l 2
 405 234 417 229 421 220 c 2
 437 186 l 2
 439 180 437 166 431 164 c 2
 105 12 l 2
 98 8 86 13 82 22 c 2
 66 58 l 2
EndSplineSet
Colour: ffda6b
EndChar

StartChar: _.keshide.medi
Encoding: 65603 -1 67
GlifName: _.keshide.medi
Width: 235
VWidth: 1304
GlyphClass: 2
Flags: HMW
LayerCount: 2
Fore
SplineSet
-12 100 m 2
 235 100 l 1
 235 0 l 1
 -12 0 l 2
 -24 0 -33 5 -40 15 c 0
 -47 25 -50 37 -50 50 c 0
 -50 63 -47 75 -40 85 c 0
 -33 95 -24 100 -12 100 c 2
EndSplineSet
Colour: ffda6b
EndChar

StartChar: _.dot.1u
Encoding: 65604 -1 68
GlifName: _.dot.1u
Width: 0
VWidth: 1304
GlyphClass: 2
Flags: HMW
LayerCount: 2
Fore
SplineSet
6 61 m 2
 -1 68 -1 83 6 90 c 2
 61 145 l 2
 68 152 82 152 89 145 c 2
 145 90 l 2
 152 83 152 68 145 61 c 2
 89 6 l 2
 82 -1 68 -1 61 6 c 2
 6 61 l 2
EndSplineSet
Colour: ffda6b
EndChar

StartChar: _.dot.2u
Encoding: 65605 -1 69
GlifName: _.dot.2u
Width: 0
VWidth: 1304
GlyphClass: 2
UnlinkRmOvrlpSave: 1
Flags: HMW
LayerCount: 2
Fore
SplineSet
6 56 m 2
 -1 63 -1 75 6 82 c 2
 57 134 l 2
 64 141 76 141 83 134 c 2
 135 82 l 2
 142 75 142 63 135 56 c 2
 83 5 l 2
 76 -2 64 -2 57 5 c 2
 6 56 l 2
156 56 m 2
 149 63 149 75 156 82 c 2
 207 134 l 2
 214 141 226 141 233 134 c 2
 285 82 l 2
 292 75 292 63 285 56 c 2
 233 5 l 2
 226 -2 214 -2 207 5 c 2
 156 56 l 2
EndSplineSet
Colour: ffda6b
EndChar

StartChar: _.dot.3u
Encoding: 65606 -1 70
GlifName: _.dot.3u
Width: 0
VWidth: 1304
GlyphClass: 2
UnlinkRmOvrlpSave: 1
Flags: HMW
LayerCount: 2
Fore
SplineSet
6 56 m 2
 -1 63 -1 75 6 82 c 2
 57 134 l 2
 64 141 76 141 83 134 c 2
 135 82 l 2
 142 75 142 63 135 56 c 2
 83 5 l 2
 76 -2 64 -2 57 5 c 2
 6 56 l 2
87 197 m 2
 81 204 81 215 87 221 c 2
 135 269 l 2
 142 275 153 275 159 269 c 2
 207 221 l 2
 213 215 213 204 207 197 c 2
 159 150 l 2
 153 143 142 143 135 150 c 2
 87 197 l 2
156 56 m 2
 149 63 149 75 156 82 c 2
 207 134 l 2
 214 141 226 141 233 134 c 2
 285 82 l 2
 292 75 292 63 285 56 c 2
 233 5 l 2
 226 -2 214 -2 207 5 c 2
 156 56 l 2
EndSplineSet
Colour: ffda6b
EndChar

StartChar: _.dot.1d
Encoding: 65607 -1 71
GlifName: _.dot.1d
Width: 0
VWidth: 1304
GlyphClass: 2
Flags: HMW
LayerCount: 2
Fore
SplineSet
6 -61 m 2
 61 -5 l 2
 68 2 82 2 89 -5 c 2
 145 -61 l 2
 152 -68 152 -82 145 -89 c 2
 89 -144 l 2
 82 -151 68 -151 61 -144 c 2
 6 -89 l 2
 -1 -82 -1 -68 6 -61 c 2
EndSplineSet
Colour: ffda6b
EndChar

StartChar: _.dot.2d
Encoding: 65608 -1 72
GlifName: _.dot.2d
Width: 0
VWidth: 1304
GlyphClass: 2
UnlinkRmOvrlpSave: 1
Flags: HMW
LayerCount: 2
Fore
SplineSet
6 -58 m 2
 57 -6 l 2
 64 1 76 1 83 -6 c 2
 135 -58 l 2
 142 -65 142 -77 135 -84 c 2
 83 -136 l 2
 76 -143 64 -143 57 -136 c 2
 6 -84 l 2
 -1 -77 -1 -65 6 -58 c 2
156 -58 m 2
 207 -6 l 2
 214 1 226 1 233 -6 c 2
 285 -58 l 2
 292 -65 292 -77 285 -84 c 2
 233 -136 l 2
 226 -143 214 -143 207 -136 c 2
 156 -84 l 2
 149 -77 149 -65 156 -58 c 2
EndSplineSet
Colour: ffda6b
EndChar

StartChar: _.dot.3d
Encoding: 65609 -1 73
GlifName: _.dot.3d
Width: 0
VWidth: 1304
GlyphClass: 2
UnlinkRmOvrlpSave: 1
Flags: HMW
LayerCount: 2
Fore
SplineSet
6 -58 m 2
 57 -6 l 2
 64 1 76 1 83 -6 c 2
 135 -58 l 2
 142 -65 142 -77 135 -84 c 2
 83 -136 l 2
 76 -143 64 -143 57 -136 c 2
 6 -84 l 2
 -1 -77 -1 -65 6 -58 c 2
87 -208 m 2
 135 -161 l 2
 142 -154 153 -154 159 -161 c 2
 207 -208 l 2
 213 -215 213 -227 207 -233 c 2
 159 -281 l 2
 153 -287 142 -287 135 -281 c 2
 87 -233 l 2
 81 -227 81 -215 87 -208 c 2
156 -58 m 2
 207 -6 l 2
 214 1 226 1 233 -6 c 2
 285 -58 l 2
 292 -65 292 -77 285 -84 c 2
 233 -136 l 2
 226 -143 214 -143 207 -136 c 2
 156 -84 l 2
 149 -77 149 -65 156 -58 c 2
EndSplineSet
Colour: ffda6b
EndChar

StartChar: _.num.0
Encoding: 65611 -1 75
GlifName: _.num.0
Width: 395
VWidth: 1424
GlyphClass: 2
Flags: HMW
LayerCount: 2
Fore
SplineSet
204 167 m 0
 116 167 75 242 75 316 c 0
 75 392 118 468 199 468 c 0
 278 468 320 387 320 310 c 0
 320 237 283 167 204 167 c 0
146 317 m 0
 146 285 163 252 198 252 c 0
 233 252 250 284 250 316 c 0
 250 349 232 382 198 383 c 0
 164 383 146 350 146 317 c 0
EndSplineSet
Colour: ffda6b
EndChar

StartChar: _.num.1
Encoding: 65612 -1 76
GlifName: _.num.1
Width: 325
VWidth: 1331
GlyphClass: 2
Flags: HMW
LayerCount: 2
Fore
SplineSet
78 663 m 0
 71 675 78 686 85 697 c 2
 142 784 l 2
 149 795 161 785 163 780 c 0
 249 499 250 494 250 15 c 0
 250 6 245 0 234 -4 c 2
 197 -19 l 1
 176 -29 170 -14 170 -3 c 0
 170 8 170 20 170 31 c 0
 170 407 129 524 78 663 c 0
EndSplineSet
Colour: ffda6b
EndChar

StartChar: _.num.2
Encoding: 65613 -1 77
GlifName: _.num.2
Width: 610
VWidth: 1331
GlyphClass: 2
Flags: HMW
LayerCount: 2
Fore
SplineSet
78 663 m 0
 71 675 78 686 85 697 c 2
 142 784 l 2
 149 795 161 785 163 780 c 0
 180 725 194 679 205 640 c 0
 230 570 269 519 348 519 c 0
 349 519 351 519 352 519 c 0
 425 519 445 556 445 602 c 0
 445 638 433 680 422 714 c 0
 417 726 421 732 428 736 c 2
 478 769 l 2
 485 774 495 780 499 766 c 0
 524 701 535 644 535 597 c 0
 535 462 446 400 342 400 c 0
 311 400 276 407 244 421 c 1
 250 332 250 214 250 15 c 0
 250 6 245 0 234 -4 c 2
 197 -19 l 1
 176 -29 170 -14 170 -3 c 0
 170 8 170 20 170 31 c 0
 170 407 129 524 78 663 c 0
EndSplineSet
Colour: ffda6b
EndChar

StartChar: _.num.3
Encoding: 65614 -1 78
GlifName: _.num.3
Width: 836
VWidth: 1331
GlyphClass: 2
Flags: HMW
LayerCount: 2
Fore
SplineSet
78 663 m 0
 71 675 78 686 85 697 c 2
 142 784 l 2
 149 795 161 785 163 780 c 0
 175 737 186 696 196 657 c 0
 221 578 241 519 326 519 c 0
 327 519 329 519 330 519 c 0
 403 519 423 556 423 602 c 0
 423 638 410 680 399 714 c 0
 394 726 399 732 406 736 c 2
 456 769 l 2
 463 774 473 780 477 766 c 0
 502 702 513 646 513 599 c 0
 513 586 512 573 510 561 c 1
 539 541 567 532 591 532 c 0
 637 532 670 567 670 635 c 0
 670 664 664 699 651 740 c 0
 647 752 651 758 658 763 c 2
 708 795 l 2
 715 800 725 805 729 791 c 0
 751 734 761 681 761 634 c 0
 761 501 684 417 589 417 c 0
 550 417 508 431 468 461 c 1
 432 419 378 400 319 400 c 0
 292 400 265 406 239 417 c 1
 248 328 252 240 252 143 c 0
 252 102 251 60 250 15 c 0
 250 6 245 0 234 -4 c 2
 197 -19 l 1
 176 -29 170 -14 170 -3 c 0
 170 1 170 7 170 11 c 0
 170 307 130 522 78 663 c 0
EndSplineSet
Colour: ffda6b
EndChar

StartChar: _.num.4.fa
Encoding: 65615 -1 79
GlifName: _.num.4.fa
Width: 701
VWidth: 1331
GlyphClass: 2
Flags: HMW
LayerCount: 2
Fore
SplineSet
231 608 m 1
 235 708 291 798 420 798 c 0
 491 798 567 770 615 716 c 1
 626 710 619 702 614 695 c 2
 591 662 l 2
 586 656 579 654 568 661 c 0
 516 692 473 705 437 705 c 0
 360 705 319 645 319 583 c 0
 319 553 328 523 346 498 c 1
 384 478 425 468 469 468 c 0
 505 468 544 475 582 490 c 0
 594 495 603 493 605 486 c 2
 621 439 l 2
 623 430 632 424 620 418 c 0
 557 385 495 370 437 370 c 0
 359 370 285 400 237 439 c 1
 248 343 252 248 252 143 c 0
 252 102 251 60 250 15 c 0
 250 6 245 0 234 -4 c 2
 197 -19 l 1
 176 -29 170 -14 170 -3 c 0
 170 1 170 7 170 11 c 0
 170 307 130 522 78 663 c 0
 71 675 78 686 85 697 c 2
 142 784 l 2
 149 795 161 785 163 780 c 0
 172 750 181 721 188 693 c 0
 199 661 214 633 231 608 c 1
EndSplineSet
Colour: ffda6b
EndChar

StartChar: _.num.5.fa
Encoding: 65617 -1 81
GlifName: _.num.5.fa
Width: 744
VWidth: 1331
GlyphClass: 2
Flags: HMW
LayerCount: 2
Fore
SplineSet
75 182 m 0
 75 290 131 446 288 652 c 1
 273 664 259 677 244 688 c 0
 222 705 232 715 234 720 c 2
 271 779 l 2
 275 785 278 795 287 795 c 0
 292 795 299 792 308 784 c 0
 468 650 669 427 669 188 c 0
 669 186 669 184 669 182 c 0
 669 51 584 -6 504 -6 c 0
 445 -6 387 25 367 80 c 1
 330 27 276 0 224 0 c 0
 147 0 75 60 75 182 c 0
508 128 m 0
 546 128 578 150 578 184 c 0
 578 284 515 433 362 585 c 1
 218 399 171 275 171 202 c 0
 171 143 201 116 235 116 c 0
 278 116 328 158 330 230 c 1
 330 237 l 2
 330 242 331 251 345 255 c 2
 401 269 l 1
 411 273 415 259 415 257 c 2
 415 248 l 1
 417 159 465 128 508 128 c 0
EndSplineSet
Colour: ffda6b
EndChar

StartChar: _.num.6.fa
Encoding: 65619 -1 83
GlifName: _.num.6.fa
Width: 722
VWidth: 1331
GlyphClass: 2
Flags: HMW
LayerCount: 2
Fore
SplineSet
79 38 m 0
 170 154 249 251 336 340 c 1
 208 365 130 468 130 570 c 0
 130 685 229 799 467 799 c 0
 470 799 474 799 477 799 c 1
 489 804 491 794 495 785 c 2
 508 748 l 2
 512 741 509 731 497 729 c 0
 299 676 234 614 234 561 c 0
 234 495 335 444 412 444 c 0
 431 444 449 447 463 454 c 1
 512 496 567 536 629 578 c 0
 633 580 648 581 647 569 c 2
 636 464 l 2
 635 452 633 439 621 434 c 0
 569 403 512 362 449 309 c 0
 353 228 244 117 130 -26 c 0
 124 -33 110 -42 99 -21 c 2
 80 15 l 1
 74 24 74 32 79 38 c 0
EndSplineSet
Colour: ffda6b
EndChar

StartChar: _.num.7
Encoding: 65621 -1 85
GlifName: _.num.7
Width: 669
VWidth: 1331
GlyphClass: 2
Flags: HMW
LayerCount: 2
Fore
SplineSet
80 646 m 0
 71 657 76 668 82 679 c 1
 124 775 l 2
 129 786 143 779 145 775 c 0
 239 585 295 431 334 252 c 1
 373 431 430 585 524 775 c 0
 526 779 539 786 545 775 c 1
 587 679 l 1
 593 668 598 657 589 646 c 0
 515 516 380 272 378 21 c 0
 378 6 335 -17 310 -17 c 0
 299 -17 291 -13 291 -1 c 2
 291 21 l 1
 290 272 154 516 80 646 c 0
EndSplineSet
Colour: ffda6b
EndChar

StartChar: _.num.8
Encoding: 65622 -1 86
GlifName: _.num.8
Width: 669
VWidth: 1331
GlyphClass: 2
Flags: HMW
LayerCount: 2
Fore
SplineSet
80 118 m 0
 154 248 290 493 291 743 c 1
 291 766 l 2
 291 778 299 782 310 782 c 0
 335 782 378 758 378 743 c 0
 380 493 515 248 589 118 c 0
 598 108 593 97 587 85 c 2
 545 -11 l 1
 539 -22 526 -15 524 -10 c 0
 430 180 373 335 334 512 c 1
 295 335 239 180 145 -10 c 0
 143 -15 129 -22 124 -11 c 2
 82 85 l 2
 76 97 71 108 80 118 c 0
EndSplineSet
Colour: ffda6b
EndChar

StartChar: _.num.9
Encoding: 65623 -1 87
GlifName: _.num.9
Width: 604
VWidth: 1331
GlyphClass: 2
Flags: HMW
LayerCount: 2
Fore
SplineSet
75 532 m 0
 75 654 167 798 267 800 c 1
 421 798 441 550 448 426 c 1
 464 277 493 159 526 69 c 0
 533 58 525 48 518 37 c 2
 462 -51 l 2
 455 -62 442 -52 441 -47 c 0
 392 111 370 241 360 378 c 1
 321 369 286 365 256 365 c 0
 124 365 75 443 75 532 c 0
152 552 m 0
 152 511 186 475 291 475 c 0
 310 475 330 477 353 479 c 1
 346 560 322 678 251 679 c 0
 219 679 152 610 152 552 c 0
EndSplineSet
Colour: ffda6b
EndChar

StartChar: _.sing.backslash
Encoding: 65624 -1 88
GlifName: _.sing.backslash
Width: 503
VWidth: 1197
GlyphClass: 2
Flags: HMW
LayerCount: 2
Fore
SplineSet
50 800 m 1
 151 800 l 1
 453 -1 l 1
 352 -1 l 1
 50 800 l 1
EndSplineSet
Colour: ffda6b
EndChar

StartChar: _.sing.slash
Encoding: 65625 -1 89
GlifName: _.sing.slash
Width: 503
VWidth: 1197
GlyphClass: 2
Flags: HMW
LayerCount: 2
Fore
SplineSet
50 -1 m 1
 352 800 l 1
 453 800 l 1
 151 -1 l 1
 50 -1 l 1
EndSplineSet
Colour: ffda6b
EndChar

StartChar: _.sing.tajob
Encoding: 65626 -1 90
GlifName: _.sing.tajob
Width: 265
VWidth: 1197
GlyphClass: 2
Flags: HMW
LayerCount: 2
Fore
SplineSet
50 84 m 1
 132 166 l 1
 215 84 l 1
 132 1 l 1
 50 84 l 1
76 795 m 1
 174 795 l 1
 158 260 l 1
 92 260 l 1
 76 795 l 1
EndSplineSet
Colour: ffda6b
EndChar

StartChar: _.sing.soal
Encoding: 65627 -1 91
GlifName: _.sing.soal
Width: 481
VWidth: 1304
GlyphClass: 2
Flags: HMW
LayerCount: 2
Fore
SplineSet
50 612 m 0
 50 733 154 802 251 802 c 0
 335 802 416 754 431 657 c 1
 431 541 l 1
 335 541 l 1
 335 631 329 700 231 700 c 0
 192 700 151 674 151 625 c 0
 151 598 162 565 192 525 c 0
 273 419 311 403 311 253 c 1
 204 253 l 1
 204 282 l 2
 204 423 50 482 50 612 c 0
178 84 m 1
 261 166 l 1
 343 84 l 1
 261 1 l 1
 178 84 l 1
EndSplineSet
Colour: ffda6b
EndChar

StartChar: _.sing.beezafeh
Encoding: 65628 -1 92
GlifName: _.sing.beezafeh
Width: 500
VWidth: 1352
GlyphClass: 2
Flags: HMW
LayerCount: 2
Fore
SplineSet
50 250 m 1
 50 351 l 1
 200 351 l 1
 200 501 l 1
 300 501 l 1
 300 351 l 1
 450 351 l 1
 450 250 l 1
 300 250 l 1
 300 101 l 1
 200 101 l 1
 200 250 l 1
 50 250 l 1
EndSplineSet
Colour: ffda6b
EndChar

StartChar: _.sing.menha
Encoding: 65629 -1 93
GlifName: _.sing.menha
Width: 500
VWidth: 0
GlyphClass: 2
Flags: HMW
LayerCount: 2
Fore
SplineSet
50 250 m 1
 50 351 l 1
 450 351 l 1
 450 250 l 1
 50 250 l 1
EndSplineSet
Colour: ffda6b
EndChar

StartChar: _.sing.khateh_tire
Encoding: 65630 -1 94
GlifName: _.sing.khateh_tire
Width: 200
VWidth: 0
GlyphClass: 2
Flags: HMW
LayerCount: 2
Fore
SplineSet
50 -100 m 1
 50 300 l 1
 150 300 l 1
 150 -100 l 1
 50 -100 l 1
50 401 m 1
 50 801 l 1
 150 801 l 1
 150 401 l 1
 50 401 l 1
EndSplineSet
Colour: ffda6b
EndChar

StartChar: _.sing.virgul
Encoding: 65631 -1 95
GlifName: _.sing.virgul
Width: 232
VWidth: 1197
GlyphClass: 2
Flags: HMW
LayerCount: 2
Fore
SplineSet
121 -0 m 0
 73 0 50 53 50 99 c 0
 50 160 88 228 145 283 c 1
 182 246 l 1
 162 225 134 195 134 161 c 0
 134 140 148 119 167 100 c 0
 176 90 182 75 182 60 c 0
 182 27 154 0 121 -0 c 0
EndSplineSet
Colour: ffda6b
EndChar

StartChar: _.sing.dot_virgul
Encoding: 65632 -1 96
GlifName: _.sing.dot_virgul
Width: 265
VWidth: 1304
GlyphClass: 2
Flags: HMW
LayerCount: 2
Fore
SplineSet
50 84 m 1
 132 166 l 1
 215 84 l 1
 132 1 l 1
 50 84 l 1
135 250 m 0
 87 250 64 304 64 349 c 0
 64 410 101 478 158 533 c 1
 195 496 l 1
 175 475 148 445 148 411 c 0
 148 390 161 368 180 349 c 0
 189 339 195 326 195 310 c 0
 195 277 168 250 135 250 c 0
EndSplineSet
Colour: ffda6b
EndChar

StartChar: _.sing.2noqte
Encoding: 65633 -1 97
GlifName: _.sing.2noqte
Width: 265
VWidth: 1352
GlyphClass: 2
Flags: HMW
LayerCount: 2
Fore
SplineSet
50 84 m 1
 132 166 l 1
 215 84 l 1
 132 1 l 1
 50 84 l 1
50 324 m 1
 132 407 l 1
 215 324 l 1
 132 241 l 1
 50 324 l 1
EndSplineSet
Colour: ffda6b
EndChar

StartChar: _.sing.noqte
Encoding: 65634 -1 98
GlifName: _.sing.noqte
Width: 266
VWidth: 1352
GlyphClass: 2
Flags: HMW
LayerCount: 2
Fore
SplineSet
50 84 m 1
 134 166 l 1
 216 84 l 1
 134 1 l 1
 50 84 l 1
EndSplineSet
Colour: ffda6b
EndChar

StartChar: _.sing.gheiomeh.right
Encoding: 65635 -1 99
GlifName: _.sing.gheiomeh.right
Width: 527
VWidth: 1352
GlyphClass: 2
Flags: HMW
LayerCount: 2
Fore
SplineSet
50 200 m 0
 50 302 92 405 173 500 c 1
 247 433 l 1
 185 346 153 267 153 191 c 0
 153 115 185 42 247 -32 c 1
 173 -97 l 1
 91 -2 50 99 50 200 c 0
280 200 m 0
 280 302 322 405 403 500 c 1
 477 433 l 1
 414 346 383 268 383 192 c 0
 383 116 415 43 477 -32 c 1
 403 -97 l 1
 321 -2 280 99 280 200 c 0
EndSplineSet
Colour: ffda6b
EndChar

StartChar: _.sing.gheiomeh.left
Encoding: 65636 -1 100
GlifName: _.sing.gheiomeh.left
Width: 527
VWidth: 1352
GlyphClass: 2
Flags: HMW
LayerCount: 2
Fore
SplineSet
50 -32 m 1
 112 43 144 116 144 192 c 0
 144 268 113 346 50 433 c 1
 124 500 l 1
 205 405 247 302 247 200 c 0
 247 99 206 -2 124 -97 c 1
 50 -32 l 1
280 -32 m 1
 342 43 374 116 374 192 c 0
 374 268 343 346 280 433 c 1
 354 500 l 1
 435 405 477 302 477 200 c 0
 477 99 436 -2 354 -97 c 1
 280 -32 l 1
EndSplineSet
Colour: ffda6b
EndChar

StartChar: _.sing.parantez.right
Encoding: 65637 -1 101
GlifName: _.sing.parantez.right
Width: 329
VWidth: 1352
GlyphClass: 2
Flags: HMW
LayerCount: 2
Fore
SplineSet
50 301 m 0
 50 441 112 580 237 759 c 1
 279 719 l 1
 193 595 149 446 149 298 c 0
 149 150 193 2 279 -122 c 1
 238 -160 l 1
 113 20 50 161 50 301 c 0
EndSplineSet
Colour: ffda6b
EndChar

StartChar: _.sing.parantez.left
Encoding: 65638 -1 102
GlifName: _.sing.parantez.left
Width: 329
VWidth: 1352
GlyphClass: 2
Flags: HMW
LayerCount: 2
Fore
SplineSet
50 -122 m 1
 136 2 179 150 179 298 c 0
 179 446 136 595 50 719 c 1
 92 759 l 1
 217 580 279 441 279 301 c 0
 279 161 216 20 91 -160 c 1
 50 -122 l 1
EndSplineSet
Colour: ffda6b
EndChar

StartChar: _.sing.parantez_tazeeni.right
Encoding: 65639 -1 103
GlifName: _.sing.parantez_tazeeni.right
Width: 503
VWidth: 0
GlyphClass: 2
Flags: HMW
LayerCount: 2
Fore
SplineSet
50 342 m 1
 72 410 l 1
 123 393 l 2
 139 388 155 381 172 375 c 0
 179 371 187 367 196 365 c 1
 200 393 206 423 216 453 c 1
 216 513 l 1
 238 513 l 1
 269 589 316 669 379 759 c 1
 421 719 l 1
 347 612 305 488 294 361 c 1
 321 372 351 384 379 393 c 2
 429 410 l 1
 453 342 l 1
 401 326 l 2
 369 316 333 308 299 298 c 1
 322 272 344 244 365 216 c 2
 397 173 l 1
 339 132 l 1
 309 175 l 2
 307 180 302 183 300 187 c 1
 316 77 357 -28 421 -122 c 1
 380 -160 l 1
 288 -27 229 85 204 191 c 1
 202 186 198 180 194 175 c 2
 162 132 l 1
 105 173 l 1
 136 216 l 1
 154 239 174 263 192 285 c 1
 192 301 l 1
 161 308 132 316 102 326 c 2
 50 342 l 1
EndSplineSet
Colour: ffda6b
EndChar

StartChar: _.sing.koroshe.right
Encoding: 65641 -1 105
GlifName: _.sing.koroshe.right
Width: 306
VWidth: 1197
GlyphClass: 2
Flags: HMW
LayerCount: 2
Fore
SplineSet
50 -202 m 1
 50 798 l 1
 256 798 l 1
 256 694 l 1
 150 694 l 1
 150 -97 l 1
 256 -97 l 1
 256 -202 l 1
 50 -202 l 1
EndSplineSet
Colour: ffda6b
EndChar

StartChar: _.sing.koroshe.left
Encoding: 65642 -1 106
GlifName: _.sing.koroshe.left
Width: 306
VWidth: 1197
GlyphClass: 2
Flags: HMW
LayerCount: 2
Fore
SplineSet
50 -99 m 1
 156 -99 l 1
 156 693 l 1
 50 693 l 1
 50 798 l 1
 256 798 l 1
 256 -202 l 1
 50 -202 l 1
 50 -99 l 1
EndSplineSet
Colour: ffda6b
EndChar

StartChar: _.sing.akolad.right
Encoding: 65643 -1 107
GlifName: _.sing.akolad.right
Width: 402
VWidth: 1197
GlyphClass: 2
Flags: HMW
LayerCount: 2
Fore
SplineSet
50 251 m 1
 50 349 l 1
 118 349 150 382 150 464 c 2
 150 620 l 2
 150 701 149 800 352 800 c 1
 352 700 l 1
 270 700 249 674 249 619 c 2
 249 474 l 2
 249 421 232 321 178 300 c 1
 232 279 249 180 249 127 c 2
 249 -19 l 2
 249 -73 270 -100 352 -100 c 1
 352 -200 l 1
 149 -200 150 -101 150 -20 c 2
 150 136 l 2
 150 218 118 251 50 251 c 1
EndSplineSet
Colour: ffda6b
EndChar

StartChar: _.sing.akolad.left
Encoding: 65644 -1 108
GlifName: _.sing.akolad.left
Width: 402
VWidth: 1197
GlyphClass: 2
Flags: HMW
LayerCount: 2
Fore
SplineSet
50 -100 m 1
 131 -100 151 -73 151 -19 c 2
 151 127 l 2
 151 180 169 279 224 300 c 1
 169 321 151 421 151 474 c 2
 151 619 l 2
 151 674 131 700 50 700 c 1
 50 800 l 1
 252 800 252 701 252 620 c 2
 252 464 l 2
 252 382 284 349 352 349 c 1
 352 251 l 1
 284 251 252 218 252 136 c 2
 252 -20 l 2
 252 -101 252 -200 50 -200 c 1
 50 -100 l 1
EndSplineSet
Colour: ffda6b
EndChar

StartChar: _.mark.maad
Encoding: 65645 -1 109
GlifName: _.mark.maad
Width: 0
VWidth: 1352
GlyphClass: 2
Flags: HMW
LayerCount: 2
Fore
SplineSet
0 26 m 1
 32 92 l 2
 44 119 64 138 89 138 c 0
 95 138 101 137 107 135 c 0
 146 124 179 119 210 119 c 0
 259 119 302 131 359 148 c 1
 366 74 l 1
 310 55 261 42 210 42 c 0
 172 42 131 49 86 65 c 1
 75 45 65 22 54 -0 c 1
 0 26 l 1
EndSplineSet
Colour: ffda6b
EndChar

StartChar: _.mark.fatheh
Encoding: 65646 -1 110
GlifName: _.mark.fatheh
Width: 0
VWidth: 2310
GlyphClass: 2
Flags: HMW
LayerCount: 2
Fore
SplineSet
0 45 m 1
 256 165 l 1
 278 114 l 1
 23 -5 l 1
 0 45 l 1
EndSplineSet
Colour: ffda6b
EndChar

StartChar: _.mark.kasreh
Encoding: 65647 -1 111
GlifName: _.mark.kasreh
Width: 0
VWidth: 2384
GlyphClass: 2
Flags: HMW
LayerCount: 2
Fore
SplineSet
0 -125 m 1
 256 -6 l 1
 278 -56 l 1
 23 -175 l 1
 0 -125 l 1
EndSplineSet
Colour: ffda6b
EndChar

StartChar: _.mark.zameh
Encoding: 65648 -1 112
GlifName: _.mark.zameh
Width: 0
VWidth: 2277
GlyphClass: 2
Flags: HMW
LayerCount: 2
Fore
SplineSet
202 287 m 0
 247 287 279 243 279 196 c 0
 279 155 255 109 193 80 c 2
 23 1 l 1
 0 50 l 1
 143 117 l 1
 124 139 111 165 111 193 c 0
 111 242 146 287 202 287 c 0
165 193 m 0
 165 179 172 164 179 155 c 2
 191 140 l 1
 215 153 229 173 229 191 c 0
 229 206 219 220 197 228 c 1
 173 223 165 208 165 193 c 0
EndSplineSet
Colour: ffda6b
EndChar

StartChar: _.mark.tanvin_fatheh
Encoding: 65649 -1 113
GlifName: _.mark.tanvin_fatheh
Width: 0
VWidth: 2280
GlyphClass: 2
Flags: HMW
LayerCount: 2
Fore
SplineSet
0 49 m 1
 256 168 l 1
 279 118 l 1
 23 -0 l 1
 0 49 l 1
0 170 m 1
 256 289 l 1
 279 240 l 1
 23 120 l 1
 0 170 l 1
EndSplineSet
Colour: ffda6b
EndChar

StartChar: _.mark.tanvin_kasreh
Encoding: 65650 -1 114
GlifName: _.mark.tanvin_kasreh
Width: 0
VWidth: 2413
GlyphClass: 2
Flags: HMW
LayerCount: 2
Fore
SplineSet
0 -120 m 1
 256 -1 l 1
 279 -51 l 1
 23 -170 l 1
 0 -120 l 1
0 -240 m 1
 256 -122 l 1
 279 -171 l 1
 23 -291 l 1
 0 -240 l 1
EndSplineSet
Colour: ffda6b
EndChar

StartChar: _.mark.tanvin_zameh
Encoding: 65651 -1 115
GlifName: _.mark.tanvin_zameh
Width: 0
VWidth: 2273
GlyphClass: 2
Flags: HMW
LayerCount: 2
Fore
SplineSet
226 287 m 0
 271 287 304 243 304 196 c 0
 304 155 280 109 218 80 c 2
 48 1 l 1
 25 50 l 1
 66 70 l 1
 70 79 73 90 73 100 c 0
 73 114 68 125 56 125 c 0
 52 125 48 125 43 122 c 2
 25 111 l 1
 0 151 l 1
 21 164 l 2
 32 170 42 172 51 172 c 0
 88 172 109 130 109 100 c 0
 109 96 109 93 108 90 c 1
 167 117 l 1
 148 139 136 165 136 193 c 0
 136 242 170 287 226 287 c 0
189 193 m 0
 189 179 196 164 203 155 c 2
 215 140 l 1
 239 153 253 173 253 191 c 0
 253 206 244 220 222 228 c 1
 198 223 189 208 189 193 c 0
EndSplineSet
Colour: ffda6b
EndChar

StartChar: _.mark.tashdid
Encoding: 65652 -1 116
GlifName: _.mark.tashdid
Width: 0
VWidth: 1833
GlyphClass: 2
Flags: HMW
LayerCount: 2
Fore
SplineSet
0 88 m 0
 0 92 0 96 0 100 c 2
 7 168 l 1
 51 164 l 1
 47 114 l 2
 47 111 47 109 47 106 c 0
 47 73 67 57 88 57 c 0
 110 57 133 77 133 116 c 2
 133 166 l 1
 177 166 l 1
 177 117 l 1
 179 73 199 55 218 55 c 0
 237 55 255 73 255 103 c 2
 255 164 l 1
 301 168 l 1
 301 101 l 2
 302 32 256 0 216 0 c 0
 189 0 164 14 157 40 c 1
 147 15 115 0 83 -0 c 0
 42 0 0 25 0 88 c 0
EndSplineSet
Colour: ffda6b
EndChar

StartChar: _.mark.hamze
Encoding: 65653 -1 117
GlifName: _.mark.hamze
Width: 0
VWidth: 1841
GlyphClass: 2
Flags: HMW
LayerCount: 2
Fore
SplineSet
0 49 m 1
 74 84 l 1
 47 106 34 138 34 170 c 0
 34 228 75 286 147 286 c 0
 167 286 189 282 213 272 c 1
 202 223 l 1
 185 227 170 229 157 229 c 0
 107 229 84 201 84 171 c 0
 84 146 99 121 127 108 c 1
 256 168 l 1
 278 118 l 1
 23 -0 l 1
 0 49 l 1
EndSplineSet
Colour: ffda6b
EndChar

StartChar: _.mark.sakon
Encoding: 65654 -1 118
GlifName: _.mark.sakon
Width: 0
VWidth: 2099
GlyphClass: 2
Flags: HMW
LayerCount: 2
Fore
SplineSet
81 -0 m 0
 35 0 0 39 0 85 c 0
 0 132 34 168 81 168 c 0
 122 168 144 146 158 118 c 0
 162 108 164 97 164 85 c 0
 164 47 142 18 113 7 c 0
 103 2 93 0 81 -0 c 0
80 120 m 0
 60 120 43 104 43 84 c 0
 43 64 60 47 80 47 c 0
 100 47 118 63 118 84 c 0
 118 104 100 120 80 120 c 0
EndSplineSet
Colour: ffda6b
EndChar

StartChar: _.mark.alef
Encoding: 65655 -1 119
GlifName: _.mark.alef
Width: 0
VWidth: 2091
GlyphClass: 2
Flags: HMW
LayerCount: 2
Fore
SplineSet
0 216 m 1
 50 235 l 1
 81 151 89 92 89 -3 c 1
 41 -3 l 1
 41 83 28 140 0 216 c 1
EndSplineSet
Colour: ffda6b
EndChar

StartChar: _.sing.momaiez
Encoding: 65656 -1 120
GlifName: _.sing.momaiez
Width: 408
VWidth: 1352
GlyphClass: 2
Flags: HMW
LayerCount: 2
Fore
SplineSet
50 -173 m 1
 263 412 l 1
 358 378 l 1
 144 -207 l 1
 50 -173 l 1
EndSplineSet
Colour: ffda6b
EndChar

StartChar: _.sing.hezare
Encoding: 65657 -1 121
GlifName: _.sing.hezare
Width: 222
VWidth: 1197
GlyphClass: 2
Flags: HMW
LayerCount: 2
Fore
SplineSet
50 900 m 1
 172 900 l 1
 130 700 l 1
 91 700 l 1
 50 900 l 1
EndSplineSet
Colour: ffda6b
EndChar

StartChar: _.sing.darsad
Encoding: 65658 -1 122
GlifName: _.sing.darsad
Width: 665
VWidth: 1197
GlyphClass: 2
Flags: HMW
LayerCount: 2
Fore
SplineSet
50 587 m 1
 132 670 l 1
 215 587 l 1
 132 505 l 1
 50 587 l 1
131 -1 m 1
 433 800 l 1
 534 800 l 1
 232 -1 l 1
 131 -1 l 1
449 244 m 1
 533 326 l 1
 615 244 l 1
 533 161 l 1
 449 244 l 1
EndSplineSet
Colour: ffda6b
EndChar

StartChar: _.sing.mosavi
Encoding: 65659 -1 123
GlifName: _.sing.mosavi
Width: 500
VWidth: 1197
GlyphClass: 2
Flags: HMW
LayerCount: 2
Fore
SplineSet
50 200 m 1
 50 300 l 1
 450 300 l 1
 450 200 l 1
 50 200 l 1
50 400 m 1
 50 501 l 1
 449 501 l 1
 449 400 l 1
 50 400 l 1
EndSplineSet
Colour: ffda6b
EndChar

StartChar: _.beh_k.init
Encoding: 65661 -1 125
GlifName: _.beh_k.init
Width: 323
VWidth: 1197
GlyphClass: 2
UnlinkRmOvrlpSave: 1
Flags: HMW
LayerCount: 2
Fore
SplineSet
-50 49 m 0
 -50 76 -27 100 -1 100 c 0
 78 100 127 106 180 139 c 1
 180 143 181 147 181 152 c 0
 181 201 158 275 141 327 c 0
 136 342 143 349 148 354 c 2
 197 396 l 2
 209 407 218 396 220 390 c 0
 245 316 259 252 259 197 c 0
 259 148 248 106 222 72 c 0
 188 26 125 0 23 -0 c 2
 -1 -0 l 2
 -25 0 -50 24 -50 49 c 0
EndSplineSet
Colour: ffda6b
EndChar

StartChar: _.beh_k.medi
Encoding: 65662 -1 126
GlifName: _.beh_k.medi
Width: 439
VWidth: 1304
GlyphClass: 2
UnlinkRmOvrlpSave: 1
Flags: HMW
LayerCount: 2
Fore
SplineSet
-50 49 m 0
 -50 76 -27 100 -1 100 c 0
 48 100 86 102 120 112 c 0
 162 126 180 152 180 184 c 2
 180 290 l 2
 180 304 180 315 200 320 c 2
 234 329 l 2
 249 333 259 327 259 310 c 2
 259 157 l 2
 259 136 287 119 318 112 c 0
 357 101 398 100 439 100 c 1
 439 -0 l 1
 415 -0 l 2
 315 0 254 26 220 69 c 1
 184 26 123 0 23 -0 c 2
 -1 -0 l 2
 -25 0 -50 24 -50 49 c 0
EndSplineSet
Colour: ffda6b
EndChar

StartChar: _.sing.3noqte
Encoding: 65663 -1 127
GlifName: _.sing.3noqte
Width: 716
VWidth: 1304
GlyphClass: 2
Flags: HMW
LayerCount: 2
Fore
SplineSet
50 84 m 1
 134 166 l 1
 215 84 l 1
 134 1 l 1
 50 84 l 1
280 84 m 1
 364 166 l 1
 445 84 l 1
 364 1 l 1
 280 84 l 1
501 84 m 1
 583 166 l 1
 666 84 l 1
 583 1 l 1
 501 84 l 1
EndSplineSet
Colour: ffda6b
EndChar

StartChar: s.khat_tire
Encoding: 8208 8208 138
GlifName: s.khat_tire
Width: 504
VWidth: 0
GlyphClass: 2
Flags: HMW
LayerCount: 2
Fore
SplineSet
55 229 m 1
 55 307 l 1
 451 307 l 1
 451 229 l 1
 55 229 l 1
EndSplineSet
Colour: d7d7d7
EndChar

StartChar: s.zwj
Encoding: 8205 8205 174
GlifName: s.zwj
Width: 0
VWidth: 1331
GlyphClass: 2
Flags: HMW
LayerCount: 2
Fore
SplineSet
25 -327 m 1
 -25 -327 l 1
 -25 579 l 1
 -111 491 l 1
 -141 521 l 1
 -30 631 l 1
 -141 740 l 1
 -111 772 l 1
 0 660 l 1
 111 772 l 1
 141 740 l 1
 30 631 l 1
 141 521 l 1
 111 491 l 1
 25 579 l 1
 25 -327 l 1
EndSplineSet
Colour: d7d7d7
EndChar

StartChar: s.tagsim
Encoding: 247 247 182
GlifName: s.tagsim
Width: 564
VWidth: 1278
GlyphClass: 2
Flags: HMW
LayerCount: 2
Fore
SplineSet
59 352 m 1
 59 429 l 1
 506 429 l 1
 506 352 l 1
 59 352 l 1
234 204 m 1
 234 299 l 1
 330 299 l 1
 330 204 l 1
 234 204 l 1
234 482 m 1
 234 577 l 1
 330 577 l 1
 330 482 l 1
 234 482 l 1
EndSplineSet
Colour: d7d7d7
EndChar

StartChar: s.zwnj
Encoding: 8204 8204 215
GlifName: s.zwnj
Width: 0
VWidth: 1331
GlyphClass: 2
Flags: HMW
LayerCount: 2
Fore
SplineSet
-25 -308 m 1
 -25 710 l 1
 25 710 l 1
 25 -308 l 1
 -25 -308 l 1
EndSplineSet
Colour: d7d7d7
EndChar

StartChar: s.dotted_circle
Encoding: 9676 9676 220
GlifName: s.dotted_circle
Width: 576
VWidth: 1890
GlyphClass: 2
Flags: HMW
LayerCount: 2
Fore
SplineSet
60 181 m 0
 60 196 67 203 82 203 c 0
 97 203 104 196 104 182 c 2
 104 180 l 2
 104 166 97 159 82 159 c 0
 67 159 60 166 60 181 c 0
76 103 m 0
 76 118 83 126 98 126 c 0
 113 126 120 118 120 103 c 0
 120 88 113 80 98 80 c 0
 83 80 76 88 76 103 c 0
76 259 m 0
 76 274 83 282 98 282 c 0
 113 282 120 274 120 259 c 0
 120 244 113 236 99 236 c 0
 84 236 76 244 76 259 c 0
120 34 m 0
 120 49 127 56 142 57 c 0
 157 56 164 49 165 34 c 0
 164 19 157 12 142 12 c 0
 127 12 120 19 120 34 c 0
120 326 m 0
 120 341 127 348 142 349 c 0
 157 348 164 341 165 326 c 0
 164 311 157 304 142 304 c 0
 127 304 120 311 120 326 c 0
187 -8 m 0
 187 7 195 14 210 14 c 0
 225 14 233 7 233 -8 c 0
 233 -23 225 -30 210 -30 c 0
 195 -30 187 -23 187 -8 c 0
187 372 m 0
 187 387 195 394 210 394 c 0
 225 394 233 387 233 372 c 0
 233 357 225 350 210 350 c 0
 195 350 187 357 187 372 c 0
310 -26 m 0
 310 -41 303 -48 288 -48 c 0
 273 -48 266 -41 265 -26 c 0
 266 -11 273 -4 288 -3 c 0
 303 -4 310 -11 310 -26 c 0
288 410 m 0
 303 410 310 403 310 388 c 0
 310 373 303 366 288 365 c 0
 273 366 266 373 265 388 c 0
 266 403 273 410 288 410 c 0
344 -8 m 0
 344 7 352 14 367 14 c 0
 382 14 390 7 390 -8 c 0
 390 -22 382 -30 367 -31 c 0
 352 -30 344 -22 344 -8 c 0
344 372 m 0
 344 387 352 394 367 394 c 0
 382 394 390 387 390 372 c 0
 390 358 382 350 367 349 c 0
 352 350 344 358 344 372 c 0
412 34 m 0
 412 49 419 56 434 57 c 0
 449 56 456 49 456 34 c 0
 456 19 449 12 434 12 c 0
 419 12 412 19 412 34 c 0
412 326 m 0
 412 341 419 348 434 349 c 0
 449 348 456 341 456 326 c 0
 456 311 449 304 434 304 c 0
 419 304 412 311 412 326 c 0
456 103 m 0
 456 118 463 126 478 126 c 0
 492 126 500 118 501 103 c 0
 500 88 492 80 478 80 c 0
 463 80 456 88 456 103 c 0
456 259 m 0
 456 274 463 282 478 282 c 0
 492 282 500 274 501 259 c 0
 500 244 492 236 478 236 c 0
 463 236 456 244 456 259 c 0
472 181 m 0
 472 196 479 203 494 203 c 0
 509 203 516 196 517 182 c 2
 517 180 l 2
 516 166 509 159 494 159 c 0
 479 159 472 166 472 181 c 0
EndSplineSet
Colour: d7d7d7
EndChar

StartChar: s.figure_dash
Encoding: 8210 8210 224
GlifName: s.figure_dash
Width: 600
VWidth: 0
GlyphClass: 2
Flags: HMW
LayerCount: 2
Fore
SplineSet
55 229 m 1
 55 307 l 1
 547 307 l 1
 547 229 l 1
 55 229 l 1
EndSplineSet
Colour: d7d7d7
EndChar

StartChar: s.em_dash
Encoding: 8212 8212 263
GlifName: s.em_dash
Width: 1200
VWidth: 1175
GlyphClass: 2
Flags: HMW
LayerCount: 2
Fore
SplineSet
55 229 m 1
 55 307 l 1
 1147 307 l 1
 1147 229 l 1
 55 229 l 1
EndSplineSet
Colour: d7d7d7
EndChar

StartChar: s.bullet
Encoding: 8226 8226 278
GlifName: s.bullet
Width: 602
VWidth: 1331
GlyphClass: 2
Flags: HMW
LayerCount: 2
Fore
SplineSet
532 432 m 0
 532 369 509 315 464 270 c 0
 419 225 365 202 302 202 c 0
 245 202 194 223 147 266 c 0
 100 309 77 357 77 410 c 0
 77 483 99 542 142 585 c 0
 185 628 236 650 295 650 c 0
 368 650 426 630 468 591 c 0
 510 552 532 499 532 432 c 0
EndSplineSet
Colour: d7d7d7
EndChar

StartChar: s.en_dash
Encoding: 8211 8211 310
GlifName: s.en_dash
Width: 600
VWidth: 1175
GlyphClass: 2
Flags: HMW
LayerCount: 2
Fore
SplineSet
55 229 m 1
 55 307 l 1
 547 307 l 1
 547 229 l 1
 55 229 l 1
EndSplineSet
Colour: d7d7d7
EndChar

StartChar: s.horizontal_bar
Encoding: 8213 8213 316
GlifName: s.horizontal_bar
Width: 2400
VWidth: 1175
GlyphClass: 2
Flags: HMW
LayerCount: 2
Fore
SplineSet
55 229 m 1
 55 307 l 1
 2347 307 l 1
 2347 229 l 1
 55 229 l 1
EndSplineSet
Colour: d7d7d7
EndChar

StartChar: s.lrm
Encoding: 8206 8206 317
GlifName: s.lrm
Width: 0
VWidth: 1331
GlyphClass: 2
Flags: HMW
LayerCount: 2
Fore
SplineSet
-25 -308 m 1
 -25 676 l 1
 196 676 l 1
 106 759 l 1
 138 790 l 1
 280 651 l 1
 138 510 l 1
 106 544 l 1
 196 628 l 1
 22 628 l 1
 22 -308 l 1
 -25 -308 l 1
EndSplineSet
Colour: d7d7d7
EndChar

StartChar: s.rlm
Encoding: 8207 8207 346
GlifName: s.rlm
Width: 0
VWidth: 1331
GlyphClass: 2
Flags: HMW
LayerCount: 2
Fore
SplineSet
22 676 m 1
 22 -308 l 1
 -25 -308 l 1
 -25 628 l 1
 -196 628 l 1
 -108 544 l 1
 -138 510 l 1
 -280 651 l 1
 -138 790 l 1
 -108 759 l 1
 -196 676 l 1
 22 676 l 1
EndSplineSet
Colour: d7d7d7
EndChar

StartChar: _.mark.he_yeh
Encoding: 65664 -1 400
GlifName: _.mark.he_yeh
Width: 209
VWidth: 1304
GlyphClass: 1
UnlinkRmOvrlpSave: 1
Flags: HMW
LayerCount: 2
Fore
SplineSet
192 89 m 2
 192 90 l 2
 192 95 184 100 167 104 c 0
 153 107 144 109 141 109 c 0
 122 114 113 124 113 141 c 0
 113 176 135 207 178 234 c 0
 191 241 202 245 210 245 c 1
 210 200 l 1
 186 200 165 187 147 162 c 1
 145 156 l 2
 145 152 157 146 180 138 c 0
 205 130 218 124 221 120 c 0
 224 115 226 106 226 92 c 0
 226 77 219 62 206 49 c 0
 169 12 101 -6 0 -6 c 1
 17 42 l 1
 96 42 150 53 178 75 c 0
 187 82 192 87 192 89 c 2
EndSplineSet
EndChar

StartChar: uni0000
Encoding: 0 0 401
GlifName: uni0000
Width: 497
VWidth: 0
GlyphClass: 2
Flags: HMW
LayerCount: 2
Fore
SplineSet
59 -251 m 1
 59 709 l 1
 438 709 l 1
 438 -251 l 1
 59 -251 l 1
105 -181 m 1
 387 -181 l 1
 387 648 l 1
 105 648 l 1
 105 -181 l 1
EndSplineSet
EndChar

StartChar: _.ghaf.medi
Encoding: 65665 -1 402
GlifName: _.ghaf.medi
Width: 550
VWidth: 0
GlyphClass: 2
Flags: HMW
LayerCount: 2
Fore
SplineSet
-50 48 m 0
 -50 74 -27 100 -1 100 c 2
 89 100 l 2
 117 100 246 121 247 160 c 0
 247 229 204 293 165 337 c 0
 121 391 74 438 14 485 c 0
 2 493 -4 507 -4 518 c 0
 -4 521 -4 523 -3 525 c 2
 15 581 l 1
 74 641 l 1
 424 800 l 2
 426 801 428 801 430 801 c 0
 437 801 439 794 439 783 c 0
 439 754 420 702 397 692 c 2
 85 551 l 1
 137 507 188 454 241 391 c 0
 323 291 401 100 550 100 c 1
 550 -0 l 1
 440 0 369 57 311 130 c 1
 283 36 191 0 81 -0 c 2
 -1 -0 l 1
 -26 1 -50 23 -50 48 c 0
46 692 m 0
 46 707 58 737 71 743 c 2
 350 869 l 2
 351 870 352 870 353 870 c 0
 357 870 358 866 358 860 c 0
 358 845 349 818 338 812 c 2
 55 684 l 2
 54 683 52 683 51 683 c 0
 48 683 46 687 46 692 c 0
EndSplineSet
Colour: ffda6b
EndChar

StartChar: _.ghaf.init
Encoding: 65666 -1 403
GlifName: _.ghaf.init
Width: 484
VWidth: 0
GlyphClass: 2
Flags: HMW
LayerCount: 2
Fore
SplineSet
-50 50 m 0
 -50 75 -26 100 -1 100 c 2
 89 100 l 2
 121 100 247 120 247 162 c 0
 247 283 134 401 -6 485 c 0
 -19 492 -24 505 -24 517 c 0
 -24 520 -24 522 -23 525 c 2
 -4 581 l 2
 6 609 5 619 55 641 c 2
 404 800 l 2
 406 801 408 801 410 801 c 0
 417 801 420 794 420 783 c 0
 420 754 400 702 377 692 c 2
 73 554 l 1
 256 430 321 306 321 198 c 0
 321 54 213 0 80 -0 c 2
 -1 -0 l 1
 -26 1 -50 24 -50 50 c 0
27 692 m 0
 27 707 38 737 51 743 c 2
 330 869 l 2
 331 870 333 870 334 870 c 0
 338 870 339 866 339 860 c 0
 339 845 329 818 318 812 c 2
 35 684 l 2
 34 683 33 683 32 683 c 0
 29 683 27 687 27 692 c 0
EndSplineSet
Colour: ffda6b
EndChar

StartChar: _.la.isol.fa
Encoding: 65667 -1 404
Width: 501
VWidth: 0
Flags: HMW
LayerCount: 2
Fore
SplineSet
64 81 m 0
 64 92 68 100 78 100 c 2
 104 100 l 2
 105 100 106 100 107 100 c 0
 237 100 356 160 373 219 c 1
 350 667 l 2
 349 682 348 694 348 704 c 0
 348 736 355 745 385 770 c 2
 409 790 l 2
 416 796 421 800 426 800 c 0
 433 800 437 793 437 779 c 2
 437 283 l 2
 437 194 407 112 331 60 c 0
 266 16 182 0 104 -0 c 1
 85 14 64 56 64 81 c 0
67 587 m 0
 67 607 79 624 124 665 c 1
 131 666 137 664 139 657 c 2
 240 236 l 2
 240 233 241 229 241 226 c 0
 241 188 220 137 205 137 c 0
 203 137 200 138 198 141 c 2
 74 550 l 2
 70 566 67 577 67 587 c 0
EndSplineSet
Colour: ffda6b
EndChar

StartChar: _.la.fina.fa
Encoding: 65668 -1 405
Width: 613
VWidth: 0
Flags: HMW
LayerCount: 2
Fore
SplineSet
64 81 m 0
 64 92 68 100 78 100 c 2
 104 100 l 2
 105 100 106 100 107 100 c 0
 237 100 356 160 373 219 c 1
 350 667 l 2
 349 682 348 694 348 704 c 0
 348 736 355 745 385 770 c 2
 409 790 l 2
 416 796 421 800 426 800 c 0
 433 800 437 793 437 779 c 2
 437 279 l 1
 443 183 468 100 613 100 c 1
 613 -0 l 1
 475 0 422 56 399 130 c 1
 382 104 359 80 331 60 c 0
 266 16 182 0 104 -0 c 1
 85 14 64 56 64 81 c 0
67 587 m 0
 67 607 79 624 124 665 c 1
 131 666 137 664 139 657 c 2
 240 236 l 2
 240 233 241 229 241 226 c 0
 241 188 220 137 205 137 c 0
 203 137 200 138 198 141 c 2
 74 550 l 2
 70 566 67 577 67 587 c 0
EndSplineSet
Colour: ffda6b
EndChar

StartChar: _.sing.alef_maad
Encoding: 65671 -1 408
Width: 494
VWidth: 1352
Flags: HMW
LayerCount: 2
Fore
SplineSet
50 -51 m 0
 57 88 142 106 229 106 c 0
 257 106 286 104 312 104 c 0
 365 104 408 111 417 157 c 0
 418 164 423 168 427 166 c 0
 444 160 445 158 444 140 c 0
 438 13 362 -4 281 -4 c 0
 251 -4 220 -1 192 -1 c 0
 136 -1 88 -10 72 -63 c 0
 70 -74 48 -63 50 -51 c 0
EndSplineSet
Colour: ffda6b
EndChar

StartChar: _.sing.star
Encoding: 65672 -1 409
Width: 503
VWidth: 1197
Flags: HMW
LayerCount: 2
Fore
SplineSet
50 543 m 1
 72 609 l 1
 123 593 l 2
 136 589 154 582 177 572 c 0
 200 562 215 557 221 555 c 1
 220 561 220 570 219 582 c 0
 218 594 218 603 217 609 c 0
 217 615 216 624 216 635 c 0
 216 646 216 655 216 660 c 2
 216 714 l 1
 286 714 l 1
 286 660 l 2
 286 623 284 588 280 555 c 1
 290 558 306 565 329 574 c 0
 352 583 368 590 379 593 c 2
 430 609 l 1
 453 543 l 1
 401 525 l 2
 390 522 373 518 350 512 c 0
 327 506 310 501 299 498 c 1
 305 491 327 464 365 417 c 1
 397 373 l 1
 341 332 l 1
 309 375 l 2
 289 402 270 432 252 463 c 1
 216 408 197 379 194 375 c 2
 162 332 l 1
 105 373 l 1
 136 417 l 2
 145 426 167 453 203 498 c 1
 192 501 175 506 152 512 c 0
 129 518 113 522 102 525 c 2
 50 543 l 1
EndSplineSet
Colour: ffda6b
EndChar

StartChar: _.sing.zarb
Encoding: 65673 -1 410
Width: 453
VWidth: 1279
Flags: HMW
LayerCount: 2
Fore
SplineSet
50 194 m 1
 156 300 l 1
 50 406 l 1
 121 477 l 1
 227 372 l 1
 333 477 l 1
 403 406 l 1
 297 300 l 1
 403 194 l 1
 333 123 l 1
 227 230 l 1
 121 123 l 1
 50 194 l 1
EndSplineSet
Colour: ffda6b
EndChar

StartChar: _.sing.khateh_amoodi
Encoding: 65674 -1 411
Width: 200
VWidth: 1331
Flags: HMW
LayerCount: 2
Fore
SplineSet
50 -0 m 1
 50 341 l 1
 150 341 l 1
 150 -0 l 1
 50 -0 l 1
50 460 m 1
 50 801 l 1
 150 801 l 1
 150 460 l 1
 50 460 l 1
EndSplineSet
Colour: ffda6b
EndChar
